<?xml version="1.0" standalone="no"?>
<!DOCTYPE svg PUBLIC "-//W3C//DTD SVG 1.1//EN" "http://www.w3.org/Graphics/SVG/1.1/DTD/svg11.dtd" >
<svg xmlns="http://www.w3.org/2000/svg">
<metadata>Generated by IcoMoon</metadata>
<defs>
<font id="Gicon" horiz-adv-x="1024">
<font-face units-per-em="1024" ascent="960" descent="-64" />
<missing-glyph horiz-adv-x="1024" />
<glyph unicode="&#x20;" horiz-adv-x="512" d="" />
<glyph unicode="&#xe900;" glyph-name="neighborhood" d="M520.53 106.683h49.066v-61.866h-49.066v61.866zM851.191 27.751h-27.733v-27.733h27.733v27.733zM885.324 27.751h-21.333v-27.733h21.333v27.733zM851.191 66.15h-27.733v-27.733h27.733v27.733zM885.324 66.15h-21.333v-27.733h21.333v27.733zM936.523 145.082l87.465-61.866h-42.666v-145.064h-219.73v200.53l91.732 66.132 44.799-32v32h38.4v-59.732zM170.669 27.751h27.733v-27.733h-27.733v27.733zM136.536 27.751h21.333v-27.733h-21.333v27.733zM170.669 66.15h27.733v-27.733h-27.733v27.733zM136.536 66.15h21.333v-27.733h-21.333v27.733zM87.47 145.082l-87.465-61.866h42.666v-145.064h219.73v200.53l-91.732 66.132-44.799-32v32h-38.4v-59.732zM454.398 104.55h49.066v-61.866h-49.066v61.866zM520.53 170.682h49.066v-55.466h-49.066v55.466zM454.398 170.682h49.066v-55.466h-49.066v55.466zM219.735 209.081h72.532v-273.062h439.46v262.396h68.265l-140.798 115.198v100.265h-78.932v-49.066l-78.932 49.066c-21.333-14.933-270.929-187.73-283.729-206.93z" />
<glyph unicode="&#xe901;" glyph-name="adulto" d="M622.66-10.172v268.186l21.197 4.267c18.33 3.789 34.509 13.926 46.012 28.058 11.23 13.756 17.954 31.369 17.954 50.517v217.020c0 22.050-9.011 42.052-23.552 56.559-14.507 14.541-34.543 23.552-56.491 23.552h-39.083l-12.459 49.562c21.709 11.674 39.799 29.047 52.395 50.108 12.117 20.173 19.081 44.032 19.081 69.564 0 37.547-15.155 71.441-39.697 95.983-24.61 24.61-58.505 39.765-96.051 39.765-37.41 0-71.373-15.155-95.881-39.765-24.61-24.542-39.799-58.436-39.799-95.983 0-25.532 6.997-49.391 19.081-69.564 12.595-21.060 30.754-38.434 52.463-50.108l-12.425-49.562h-39.117c-22.016 0-42.052-9.011-56.593-23.552-14.507-14.507-23.518-34.509-23.518-56.559v-217.020c0-19.149 6.793-36.796 18.022-50.517 11.503-14.131 27.716-24.269 46.080-28.058l21.129-4.267v-268.186c0-10.069 4.028-19.319 10.752-25.975s15.906-10.82 26.044-10.82h147.695c10.035 0 19.319 4.164 25.941 10.82 6.724 6.656 10.82 15.906 10.82 25.975z" />
<glyph unicode="&#xe902;" glyph-name="buscar" d="M679.799 364.373c103.526 142.848 90.931 343.723-37.786 472.439-142.677 142.677-373.999 142.677-516.71 0-142.677-142.677-142.677-374.033 0-516.71 127.249-127.249 324.983-141.005 467.49-41.301l315.358-315.358c15.019-15.019 39.561-15.019 54.545 0l31.744 31.744c15.019 14.985 15.019 39.526 0 54.511l-314.641 314.675zM208.759 753.391c96.597 96.597 253.235 96.597 349.833 0 96.631-96.631 96.631-253.235 0-349.867-96.597-96.597-253.235-96.597-349.833 0-96.631 96.631-96.631 253.235 0 349.867z" />
<glyph unicode="&#xe903;" glyph-name="calendario" d="M95.573 103.253v532.48h836.267v-532.48c0-17.067-17.067-34.133-34.133-34.133h-764.587c-20.48 0-34.133 17.067-34.133 34.133zM17.067 796.16v-699.733c0-54.613 51.2-109.227 109.227-109.227h774.827c54.613 0 109.227 51.2 109.227 109.227v699.733c0 58.027-54.613 109.227-112.64 109.227h-78.507c0-37.547 3.413-85.333-6.827-109.227-3.413-6.827-3.413-6.827-6.827-13.653-3.413-3.413-3.413-6.827-10.24-10.24-6.827-6.827-13.653-10.24-23.893-13.653-20.48-6.827-44.373-6.827-61.44 3.413-13.653 6.827-13.653 6.827-20.48 17.067-27.307 27.307-20.48 78.507-20.48 129.707h-307.2c0-64.853 13.653-139.947-71.68-153.6-40.96-6.827-81.92 30.72-81.92 71.68v81.92c-61.44 0-112.64 10.24-157.013-30.72-17.067-13.653-34.133-47.787-34.133-78.507zM358.4 434.347h180.907c-3.413-10.24-143.36-293.547-143.36-293.547h133.12c3.413 6.827 3.413 13.653 6.827 20.48l75.093 184.32c3.413 6.827 6.827 13.653 10.24 20.48 6.827 20.48 40.96 92.16 40.96 105.813v51.2h-307.2v-88.747zM245.76 942.933v-112.64c0-51.2 78.507-54.613 78.507 3.413v109.227c0 51.2-78.507 51.2-78.507 3.413zM703.147 942.933v-109.227c0-37.547 40.96-54.613 64.853-30.72 0 0 0 0 0 0 6.827 6.827 10.24 17.067 10.24 27.307v112.64c0 47.787-78.507 47.787-78.507-3.413z" />
<glyph unicode="&#xe904;" glyph-name="avion" d="M464.213 516.267l-184.32-184.32c-6.827 3.413-17.067 3.413-23.893 3.413l-75.093 10.24c-10.24 0-95.573 10.24-102.4 17.067l-30.72-30.72 177.493-126.293c40.96-27.307 34.133-27.307 64.853-71.68l88.747-126.293c6.827-10.24 13.653-20.48 20.48-27.307l30.72 30.72c-3.413 6.827-13.653 88.747-17.067 98.987 0 10.24-13.653 95.573-17.067 102.4l184.32 184.32 112.64-361.813c6.827-17.067 20.48-75.093 27.307-85.333l58.027 58.027c10.24 10.24 6.827 10.24 6.827 20.48l-23.893 341.333c0 13.653 0 27.307-3.413 37.547 0 6.827 0 10.24 0 17.067l-6.827 95.573c0 10.24 0 30.72-3.413 37.547 58.027 58.027 116.053 116.053 174.080 174.080 40.96 40.96 92.16 78.507 85.333 129.707-3.413 17.067-10.24 34.133-17.067 44.373l-10.24 10.24c-13.653 10.24-27.307 17.067-44.373 20.48-54.613 6.827-92.16-44.373-133.12-85.333-58.027-58.027-116.053-116.053-174.080-174.080-6.827 3.413-174.080 13.653-187.733 13.653l-78.507 6.827c-34.133 0-98.987 6.827-133.12 10.24l-133.12 10.24c-17.067 3.413-13.653 3.413-37.547-23.893-13.653-13.653-27.307-27.307-37.547-37.547 10.24-6.827 68.267-23.893 81.92-27.307 64.853-20.48 153.6-47.787 221.867-68.267l139.947-44.373z" />
<glyph unicode="&#xe905;" glyph-name="cerrar" d="M992.393 126.839c0 20.89-88.508 105.131-168.96 181.726-57.617 54.852-111.275 105.916-128.512 131.618l-6.178 9.25c23.62 23.927 156.194 152.576 163.021 165.274 3.106 3.106 11.469 11.025 21.709 20.719 41.677 39.424 118.921 112.538 118.921 133.257 0 26.078-16.862 41.745-42.837 65.843-8.158 7.578-17.135 15.906-26.010 24.781s-17.203 17.852-24.781 26.010c-24.098 25.975-39.765 42.837-65.843 42.837-20.070 0-96.324-80.111-136.158-121.993-8.943-9.387-16.247-17.067-19.934-20.753-13.141-7.066-140.083-138.138-164.83-162.543-25.020 24.678-153.668 157.525-166.946 164.659-16.316 16.35-34.509 34.816-50.654 51.268-54.443 55.364-82.671 84.070-102.98 89.6-17.988 4.881-35.669-13.073-72.397-50.278l-18.569-18.807c-8.875-8.875-17.852-17.203-26.010-24.781-25.975-24.098-42.837-39.765-42.837-65.843 0-20.89 88.508-105.131 168.96-181.726 57.617-54.852 111.275-105.916 128.512-131.618l6.178-9.25c-23.62-23.927-156.194-152.576-163.021-165.274-3.652-3.618-11.196-10.82-20.48-19.661-41.267-39.253-120.149-114.278-120.149-134.315 0-23.654 5.905-29.082 16.93-39.253 2.765-2.56 5.837-5.393 9.626-9.148l42.257-42.257c7.305-7.236 14.746-15.258 21.879-22.903 23.279-25.020 42.701-45.909 64.546-45.909s47.923 28.058 68.267 49.937c5.188 5.598 10.069 10.82 13.926 14.677 9.967 9.967 20.958 21.060 34.645 34.953 64.171 64.922 185.515 187.699 200.738 197.905l7.578 5.052 7.578-5.052c16.111-10.82 41.813-37.751 62.498-59.392 6.588-6.895 12.595-13.175 18.739-19.319 36.557-36.591 69.666-70.519 97.621-99.157 67.686-69.393 103.663-106.291 128.444-117.146 22.255-9.762 39.014 7.441 74.752 44.066 7.543 7.748 15.872 16.282 21.914 22.323 8.875 8.875 17.852 17.169 26.010 24.781 25.975 24.098 42.837 39.731 42.837 65.843z" />
<glyph unicode="&#xe906;" glyph-name="carrito" d="M713.421 26.18c0-73.079 80.623-91.614 119.194-53.009 26.385 26.385 28.467 71.646-0.614 99.533l-5.188 4.574c-44.169 37.035-113.391 2.867-113.391-51.098zM483.772 30.071c0-20.582 1.399-32.666 14.404-49.835 46.967-62.123 149.436-8.465 119.671 69.052-4.779 12.39-11.639 20.719-21.709 28.911-26.863 21.845-70.383 17.886-92.467-5.734-7.851-8.397-19.9-27.17-19.9-42.394zM16.657 905.933c0-29.389 21.777-41.062 50.551-40.926 28.57 0.137 57.139 0.068 85.709 0.068 73.762 0 73.591 7.305 96.87-76.356 36.693-131.686 80.896-268.117 117.623-400.111 12.322-44.169 26.487-88.405 39.356-133.871 15.906-56.183 31.095-99.089 84.139-131.891 33.007-20.378 62.669-24.644 105.745-24.644h262.758c58.539 0 60.45 46.729 42.462 65.809-18.466 19.593-51.063 12.049-87.211 12.049-41.847 0-238.046-3.243-262.861 3.755-28.331 8.021-59.699 42.257-62.191 72.158 75.264 0 150.528 0 225.792 0 35.191 0 81.169-4.198 107.349 5.495 25.259 9.353 31.949 29.901 39.219 44.476l89.566 192.683c18.261 39.458 55.808 107.145 55.808 144.657 0 45.124-28.331 73.967-72.021 73.967h-564.429c-9.796 0-8.704-1.775-17.51-1.946l-44.203 148.514c-19.115 48.913-53.589 83.081-111.514 83.081h-144.009c-19.9 0-37.001-17.067-37.001-36.966z" />
<glyph unicode="&#xe907;" glyph-name="check" d="M374.34-20.719c-94.003 65.843-285.013 281.498-345.259 342.835-20.105 20.48-19.831 53.692 0.683 73.83l79.258 77.892c20.48 20.139 53.726 19.831 73.83-0.649l197.325-200.806 444.484 634.846c16.521 23.552 49.22 29.286 72.772 12.834l91.034-63.761c23.518-16.452 29.286-49.186 12.8-72.738l-554.189-791.45c-16.486-23.552-49.186-29.286-72.738-12.834z" />
<glyph unicode="&#xe908;" glyph-name="dolar" d="M545.587 182.033c30.379 3.994 53.555 14.985 69.495 32.836 15.94 17.647 23.927 41.37 23.927 70.997 0 26.385-7.612 48.23-22.596 65.297-14.985 17.306-38.537 30.788-70.827 40.448v-209.579zM479.539 562.108v189.474c-28.877-3.823-50.893-13.687-66.082-29.833-15.189-16.111-22.767-37.786-22.767-64.922 0-22.596 7.202-41.574 21.436-56.764 14.268-15.36 36.659-27.887 67.413-37.956zM479.539-29.867v90.010c-83.9 5.12-146.569 29.423-188.143 72.909-35.089 36.523-55.433 86.801-60.928 150.903-0.853 9.865 2.15 18.671 8.841 25.975 6.724 7.305 15.258 11.059 25.156 11.059h82.842c16.93 0 31.061-12.083 33.724-28.774 4.233-26.692 12.595-48.674 25.225-65.946 16.896-23.177 41.37-37.99 73.284-44.237v230.093c-86.016 21.811-147.149 50.313-183.603 85.606-36.25 35.123-54.477 83.354-54.477 144.486 0 67.789 21.641 122.436 64.751 163.84 43.281 41.574 101.001 63.215 173.329 65.126v54.682c0 9.387 7.68 17.067 17.067 17.067h31.915c9.421 0 17.067-7.68 17.067-17.067v-54.682c72.363-3.618 128.717-25.463 168.994-65.331 32.666-32.222 53.589-75.025 62.498-128.444 1.707-10.24-0.887-19.763-7.612-27.682s-15.667-12.083-26.044-12.083h-83.661c-16.486 0-30.345 11.435-33.485 27.648-4.164 21.436-11.162 38.741-21.060 51.917-13.858 18.398-33.792 28.843-59.631 30.925v-202.752c91.511-28.467 155.887-61.133 193.297-97.758 37.376-36.659 56.183-85.060 56.183-145.033 0-70.827-21.845-127.42-65.331-169.745-43.452-42.155-104.789-66.833-184.149-73.83v-88.883c0-9.387-7.646-17.067-17.067-17.067h-31.915c-9.387 0-17.067 7.68-17.067 17.067z" />
<glyph unicode="&#xe909;" glyph-name="chat" d="M525.346 142.302c66.287 0 122.505 15.599 175.787 38.434l42.94 21.299c5.188 2.867 8.602 5.53 12.971 8.465 45.295 30.14 78.404 57.071 111.036 103.185 87.313 123.494 77.039 275.49-4.437 385.058-19.354 26.010-37.888 45.056-63.113 65.399l-49.664 36.011c-17.783 11.537-38.912 20.002-57.378 28.297-47.821 21.436-84.139 27.068-135.578 33.86-7.066 0.922-13.79 0.375-20.958 0.444-10.24 0.102-10.854 1.741-19.456 2.116-8.636 0.375-11.674-1.638-19.422-2.048-6.895-0.375-14.438 0.478-21.333-0.102-63.078-5.086-141.585-28.126-195.243-61.781-8.909-5.632-16.794-10.991-25.702-17.135l-35.772-28.501c-4.779-4.164-6.929-5.052-11.674-9.762l-39.117-44.612c-83.422-110.729-93.764-258.014-7.68-384.922 15.906-23.45 39.561-48.538 60.723-67.789 0.307-0.273 0.751-0.649 1.024-0.922l1.98-1.911c23.927-24.883 8.26-75.605-1.741-101.171-11.981-30.515-25.532-42.359-41.779-63.386-6.349-8.26-10.445-10.581-18.057-16.998-6.827-5.734-11.332-10.377-18.739-16.316-4.813-3.891-15.974-12.288-18.842-16.213l46.592 6.007c51.029 10.308 105.574 30.481 150.187 56.218 98.236 56.627 62.225 62.669 139.264 51.814 24.815-3.482 38.844-3.038 63.181-3.038zM513.638 636.928h3.925c1.502-6.451 29.286-63.522 35.43-69.7 11.981-12.049 55.228-14.78 75.981-17.681 6.758-0.922 8.158 1.843 8.021-3.516-0.102-3.311-45.978-45.124-51.439-53.043-13.722-19.968 6.007-56.661 6.007-89.737-20.378 4.745-56.866 34.611-75.401 34.133-23.279-0.614-54.579-29.013-76.527-34.133 0 26.385 18.022 67.721 6.622 88.405-5.632 10.274-51.951 50.039-52.053 54.374-0.102 5.018 0.102 2.389 18.5 4.881 8.772 1.195 16.657 2.662 23.62 3.686 46.421 6.793 39.799 5.461 59.802 45.329 4.335 8.67 15.497 28.262 17.51 37.001zM293.581 570.743c0-21.606 20.992-35.601 42.359-56.969 57.924-57.924 53.35-31.915 42.803-92.467-2.697-15.497-15.531-73.591-11.025-86.050 16.452-45.431 64.068-7.168 90.726 6.349 61.338 31.13 50.381 36.215 85.982 14.541 14.985-9.114 78.575-42.462 89.975-42.462 9.182 0 12.459 1.263 19.866 7.407 17.203 14.268 9.114 36.693 5.427 58.812-3.243 19.49-13.619 70.861-13.619 85.675 0 7.578 91.511 78.268 91.511 99.294 0 38.98-27.682 36.25-62.191 41.028l-62.771 9.25c-27.853 3.652-20.275 9.865-42.462 54.921-2.867 5.769-5.325 10.547-8.465 16.862-5.7 11.366-10.206 21.402-16.247 32.427-17.374 31.744-47.923 22.528-58.47 2.662l-48.469-99.499c-5.325-8.397-20.958-7.202-38.673-10.035-14.609-2.355-28.74-4.437-42.325-6.349-29.116-4.13-63.932-3.038-63.932-35.396zM17.067-3.721v9.83c1.877 20.855 14.78 43.247 26.795 56.832l44.817 38.912c39.185 31.949 58.675 47.889 70.554 98.884-10.342 6.895-38.878 41.677-48.265 53.009-45.022 54.477-82.5 145.237-86.118 215.723-8.158 158.754 57.993 282.18 178.586 372.531 47.445 35.533 112.845 66.116 169.984 81.203 70.178 18.569 153.498 24.235 226.509 12.288 14.814-2.423 28.877-5.086 42.257-8.363 25.873-6.315 52.463-13.858 75.264-24.064 12.527-5.598 23.040-9.523 35.089-15.565l33.109-17.51c36.181-19.285 83.217-60.314 112.162-90.351 4.54-4.71 7.168-8.636 11.605-13.722 122.709-140.766 130.116-351.061 19.319-501.214-30.208-40.994-59.631-69.359-100.42-100.147-25.463-19.183-38.81-24.849-62.327-38.946-59.085-35.396-163.601-61.201-240.64-61.201-110.933 0-74.103 18.842-122.709-13.619-97.314-65.024-232.516-115.234-350.754-89.839-7.953 1.741-18.705 6.554-23.654 11.401-6.929 6.758-10.308 15.053-11.162 23.927z" />
<glyph unicode="&#xe90a;" glyph-name="fd" d="M982.801 608.734l-72.772 72.772c-13.278 13.278-34.987 13.278-48.265 0l-349.764-349.764-349.764 349.764c-13.278 13.278-34.987 13.278-48.265 0l-72.772-72.772c-13.278-13.278-13.278-34.987 0-48.265l446.669-446.669c13.278-13.278 34.987-13.278 48.265 0l446.669 446.669c13.278 13.278 13.278 34.987 0 48.265z" />
<glyph unicode="&#xe90b;" glyph-name="ff1" d="M529.169 877.5l-62.669-62.669c-13.312-13.278-13.312-34.987 0-48.265l318.566-318.566-318.566-318.566c-13.312-13.278-13.312-34.987 0-48.265l62.669-62.669c13.278-13.312 34.953-13.312 48.265 0l405.367 405.367c13.278 13.278 13.278 34.987 0 48.265l-405.367 405.367c-13.312 13.312-34.987 13.312-48.265 0zM103.868 877.5l-62.669-62.669c-13.278-13.278-13.278-34.987 0-48.265l318.566-318.566-318.566-318.566c-13.278-13.278-13.278-34.987 0-48.265l62.669-62.669c13.312-13.312 34.987-13.312 48.265 0l405.367 405.367c13.312 13.278 13.312 34.987 0 48.265l-405.367 405.367c-13.278 13.312-34.953 13.312-48.265 0z" />
<glyph unicode="&#xe90c;" glyph-name="fl" d="M722.295 919.62l72.772-72.772c13.278-13.278 13.278-34.953 0-48.265l-349.764-349.764 349.764-349.764c13.278-13.278 13.278-34.953 0-48.265l-72.772-72.772c-13.312-13.278-34.987-13.278-48.265 0l-446.669 446.669c-13.278 13.312-13.278 34.987 0 48.265l446.669 446.669c13.278 13.312 34.987 13.312 48.265 0z" />
<glyph unicode="&#xe90d;" glyph-name="fr" d="M300.134 919.62l-72.772-72.772c-13.312-13.278-13.312-34.953 0-48.265l349.764-349.764-349.764-349.764c-13.312-13.278-13.278-34.953 0-48.265l72.772-72.772c13.278-13.278 34.953-13.278 48.265 0l446.669 446.669c13.278 13.312 13.278 34.987 0 48.265l-446.669 446.669c-13.312 13.312-34.987 13.312-48.265 0z" />
<glyph unicode="&#xe90e;" glyph-name="fu" d="M982.801 239.070l-72.772-72.738c-13.278-13.312-34.987-13.312-48.265 0l-349.764 349.764-349.764-349.764c-13.278-13.312-34.987-13.312-48.265 0l-72.772 72.738c-13.278 13.312-13.278 34.987 0 48.265l446.669 446.669c13.278 13.312 34.987 13.312 48.265 0l446.669-446.669c13.278-13.278 13.278-34.953 0-48.265z" />
<glyph unicode="&#xe90f;" glyph-name="facebook" d="M583.68 615.253c0 180.907-17.067 160.427 163.84 160.427v167.253c-105.813 0-238.933 13.653-317.44-40.96s-68.267-174.080-68.267-286.72h-85.333v-167.253h85.333v-494.933h221.867v494.933h133.12l17.067 167.253h-150.187z" />
<glyph unicode="&#xe910;" glyph-name="soporte" d="M119.091 581.837c0-19.115-1.024-43.076 1.331-61.201 6.315-48.401-7.714-19.285-28.433-71.748-22.494-56.934-16.282-103.049 19.217-150.903 16.179-21.811 40.073-41.131 64.273-53.453 4.983-2.56 7.27-3.447 12.595-5.837 7.851-3.55 5.973-1.946 9.045-11.162 3.311-9.933 7.168-20.002 11.503-29.013 21.504-44.646 50.074-75.878 86.665-108.339 37.751-33.451 85.879 5.53 58.573 45.705-7.851 11.503-32.597 26.624-45.261 43.008-4.267 5.53-8.67 10.65-13.141 16.316-31.539 39.868-29.798 84.48-48.913 100.147-8.021 6.588-30.447 10.206-42.94 17.749-6.793 4.13-10.786 7.27-17.033 12.39-15.292 12.459-34.372 34.372-34.372 55.808 0 15.599 4.437 27.955 7.373 40.482 2.492-0.649 39.083-27.955 59.563 6.69 7.475 12.698 4.54 23.040 4.745 41.233l3.857 42.121c2.048 14.336 4.198 27.341 7.27 40.585l50.722 10.001c39.663 10.069 59.529 43.486 73.626 79.053 3.004 7.578 6.417 15.906 8.124 23.177h3.686c2.389-10.342 6.622-20.173 11.776-28.672 16.009-26.453 35.806-45.363 65.195-56.252 58.436-21.641 160.188-2.662 226.782-16.077 11.571-2.355 21.299-4.813 31.642-8.841 16.828-6.519 15.36-2.56 18.398-22.084 3.311-21.436 6.963-48.367 6.827-74.138-0.171-26.112 6.895-45.5 34.953-47.821v-90.18c-6.178-4.096-14.199-10.377-21.47-13.483-9.182-3.959-19.934-3.789-29.116-7.68-19.183-8.090-21.094-29.764-26.453-47.138-14.063-45.807-49.903-74.035-49.903-97.28 0-31.3 42.257-47.411 63.044-24.405 22.323 24.678 42.871 58.163 53.555 89.941 8.192 24.405 11.025 12.083 40.141 31.607 8.465 5.666 12.971 13.005 23.552 13.244-11.332-48.674-41.301-109.602-68.369-150.562-4.164-6.349-5.427-7.475-13.653-10.274-33.109-11.093-87.62-23.142-124.041-23.142-0.546 23.962-20.924 42.121-38.263 53.726-51.098 34.27-138.138 27.136-172.1-27.341-46.182-74.138 41.335-147.285 130.56-126.874 13.653 3.14 15.155 4.267 26.214 8.738 8.192 3.311 14.575 7.782 21.811 13.141 8.772 6.519 11.878 8.124 17.067 17.886 37.41 0 115.814 14.404 147.9 25.054 10.923 3.618 21.641 7.1 30.618 11.674 10.308 5.222 15.497 12.868 21.675 22.528l23.62 40.755c22.699 45.090 45.909 87.825 56.32 138.718 6.007 29.594 19.388 15.087 41.574 44.851 11.401 15.292 24.166 36.181 24.166 62.327v91.989c0 25.020-13.824 49.835-29.867 65.775-9.421 9.353-15.053 14.438-27.136 20.719-15.565 8.158-34.372 11.025-53.385 11.025 0 63.249-11.298 123.358-33.075 172.988-41.916 95.676-127.522 159.027-230.161 180.122-26.18 5.393-53.623 8.567-81.34 9.353h-26.829c-49.050-1.399-98.031-10.377-141.653-27.887-19.183-7.68-39.151-17.237-56.218-28.399-53.18-34.85-91.375-80.521-117.043-138.684-15.326-34.714-29.389-91.785-29.389-141.756z" />
<glyph unicode="&#xe911;" glyph-name="twitter" d="M514.185 583.202c-7.646 0-29.423 2.287-36.045 3.311-12.425 1.877-22.528 2.697-34.304 5.052-41.301 8.192-84.207 18.739-121.856 35.601-56.457 25.225-113.22 55.945-157.594 98.202-4.608 4.403-6.315 4.915-10.82 8.875l-58.573 61.474c-33.246-62.839-38.741-142.199-0.785-203.503 29.901-48.367 56.457-60.757 61.815-68.062-31.505 0.717-63.010 12.356-90.522 25.6 0-76.561 37.001-136.738 93.252-174.387 11.639-7.817 47.479-25.975 64.171-26.351-9.353-12.766-74.035-5.905-84.617-5.905 1.331-15.872 18.159-41.95 26.351-54.34 11.537-17.476 24.303-29.594 40.107-42.564 22.426-18.432 54.306-34.133 83.934-40.038 9.591-1.911 27.136-4.745 36.557-4.745-1.809-1.57-1.946-1.741-4.369-3.516s-3.516-2.423-5.769-4.096c-4.164-3.038-7.339-5.393-11.503-8.158-43.793-29.047-83.524-46.285-135.782-59.051-45.705-11.162-74.752-9.796-122.027-9.796-9.899 0-8.806 1.741-17.715 1.946 9.216-13.756 78.131-44.169 96.119-51.473 11.332-4.608 23.45-8.363 36.489-12.732 140.868-47.002 296.277-33.894 428.237 24.883 23.62 10.513 68.847 37.751 91.102 54.511l40.311 32.495c20.958 20.855 13.619 10.445 37.376 37.41l16.794 18.637c29.321 34.611 53.009 68.028 74.24 108.783 51.746 99.465 68.847 185.719 68.847 301.124 36.523 24.439 75.913 67.789 100.352 104.311-19.593-4.574-71.782-29.525-110.182-29.525l26.044 21.163c9.387 8.294 15.394 16.316 23.586 25.6 8.567 9.694 31.778 48.606 33.007 63.42-3.823-1.024-88.678-47.206-127.898-47.206-4.13 0-18.978 15.531-28.16 23.006-30.071 24.576-80.589 39.97-125.372 39.97-92.604 0-170.086-68.096-192.444-149.982-13.073-47.821-5.393-63.59-2.355-99.942z" />
<glyph unicode="&#xe912;" glyph-name="whatsapp" d="M46.114 34.338l45.158 153.156c-22.323 35.942-40.175 75.059-52.804 116.565-13.892 45.875-21.402 94.276-21.402 143.94 0 136.636 55.433 260.403 144.964 349.935s213.299 144.964 349.969 144.964c136.704 0 260.437-55.433 349.969-144.964 89.566-89.702 144.964-213.436 144.964-349.935 0-136.465-55.364-260.164-144.964-349.798-89.771-89.737-213.47-145.101-349.969-145.101-50.074 0-99.328 7.646-146.227 22.118-41.95 12.971-81.886 31.403-118.682 54.75l-219.648-58.709 18.671 63.078zM437.111 396.663c-22.733 26.999-66.048 84.207-48.299 117.726l9.762 12.868c9.182 7.851 14.234 9.284 24.849 19.285l5.666 4.506 6.007 5.325c31.505 24.303 26.795 61.201 7.953 92.979l-11.947 19.695c-13.722 20.651-21.948 37.001-41.574 54.613-13.926 12.459-31.027 13.449-47.070 4.608-7.475-4.13-11.503-9.284-17.613-14.165-26.010-20.821-43.657-38.127-59.87-67.925-11.162-20.412-19.524-52.77-19.524-77.858 0-47.377 6.485-70.69 22.835-110.763 9.591-23.654 27.785-55.364 42.359-76.493l4.779-6.485 15.155-21.094c6.349-9.387 34.065-41.643 43.622-52.565 4.028-4.54 7.953-7.407 11.605-12.151l35.908-35.43c9.523-9.523 44.203-35.669 53.965-42.223 53.35-35.499 125.85-64.375 198.076-40.516 31.471 10.445 55.262 27.955 78.473 50.586 4.847 4.745 10.718 8.465 16.964 15.838 16.35 19.354 9.25 40.789-5.7 58.197-17.51 20.48-57.412 54.682-80.009 65.946-42.974 21.538-66.389-1.297-96.495-31.403-14.677-14.643-18.773-18.364-39.322-18.364-35.465 0-88.508 58.982-110.558 85.265zM166.844 182.852l-31.334-106.223 124.826 33.417 13.995-9.626c34.748-23.791 72.909-42.257 113.118-54.716 39.561-12.186 81.476-18.637 124.553-18.637 116.361 0 221.628 47.104 297.643 123.153 76.22 76.151 123.324 181.453 123.324 297.779 0 116.292-47.104 221.628-123.153 297.643-76.288 76.117-181.555 123.29-297.813 123.29-116.224 0-221.525-47.172-297.677-123.29-76.117-76.151-123.29-181.419-123.29-297.643 0-42.974 6.315-84.105 17.954-122.539 12.117-40.004 30.208-77.619 53.077-111.684l9.626-14.37-4.847-16.555z" />
<glyph unicode="&#xe913;" glyph-name="google" d="M232.107 546.987l3.413 3.413c3.413 3.413 0 0 3.413 3.413 23.893 61.44 23.893 54.613 64.853 102.4 23.893 30.72 71.68 58.027 109.227 71.68 71.68 27.307 167.253 20.48 238.933-20.48l40.96-27.307c10.24 6.827 27.307 27.307 37.547 34.133l88.747 88.747c6.827 6.827 10.24 13.653 20.48 17.067-10.24 13.653-64.853 51.2-85.333 61.44-146.773 81.92-317.44 85.333-467.627 10.24-10.24-3.413-13.653-6.827-23.893-13.653-30.72-17.067-58.027-40.96-85.333-61.44-34.133-27.307-95.573-105.813-112.64-150.187-10.24-13.653-30.72-81.92-37.547-98.987-20.48-78.507-20.48-160.427 0-238.933 6.827-27.307 13.653-51.2 23.893-75.093 3.413-3.413 6.827-17.067 10.24-23.893 10.24-27.307 37.547-68.267 58.027-88.747 68.267-85.333 160.427-146.773 266.24-170.667 146.773-34.133 314.027-3.413 423.253 92.16 10.24 6.827 17.067 13.653 20.48 20.48 10.24 3.413 47.787 47.787 54.613 58.027 6.827 6.827 10.24 13.653 17.067 23.893 68.267 98.987 95.573 256 68.267 378.88h-460.8v-191.147h262.827c0-13.653-10.24-37.547-13.653-47.787-20.48-54.613-47.787-68.267-85.333-98.987l-27.307-13.653c-71.68-37.547-180.907-37.547-252.587-6.827-20.48 10.24-37.547 17.067-54.613 30.72-34.133 23.893-61.44 51.2-81.92 88.747-17.067 30.72-20.48 47.787-23.893 54.613-3.413 3.413 0 0-3.413 3.413 0 6.827-6.827 30.72-6.827 40.96-13.653 75.093 10.24 129.707 10.24 143.36z" />
<glyph unicode="&#xe914;" glyph-name="ida" d="M20.48 744.96v-662.187c0-17.067 6.827-34.133 13.653-44.373s10.24-17.067 20.48-27.307c20.48-23.893 54.613-37.547 98.987-37.547h655.36c54.613 0 85.333 17.067 109.227 51.2 27.307 37.547 20.48 81.92 20.48 143.36-6.827 0-40.96-34.133-47.787-40.96s-10.24-10.24-17.067-13.653c-23.893-17.067-6.827-17.067-20.48-40.96-6.827-13.653-20.48-20.48-40.96-20.48h-669.013c-13.653 0-23.893 3.413-30.72 6.827s-17.067 17.067-17.067 23.893v539.307h761.173v-47.787c10.24-3.413 13.653-10.24 20.48-17.067l30.72-23.893c3.413-3.413 6.827-6.827 10.24-10.24l20.48-17.067c0 78.507 0 153.6 0 232.107 0 64.853-51.2 116.053-116.053 116.053h-75.093c0-68.267 10.24-116.053-44.373-143.36-27.307-13.653-61.44-6.827-85.333 13.653-10.24 6.827-23.893 30.72-23.893 47.787v85.333h-232.107c0-64.853 13.653-139.947-71.68-153.6-40.96-6.827-81.92 30.72-81.92 71.68v81.92c-64.853 0-112.64 10.24-157.013-30.72-17.067-13.653-34.133-47.787-34.133-78.507zM744.107 509.44v-75.093h-194.56c-13.653 0-34.133-17.067-34.133-34.133v-122.88c0-20.48 20.48-37.547 40.96-37.547h184.32v-75.093c0-20.48 10.24-37.547 30.72-37.547 6.827 0 23.893 17.067 30.72 23.893s6.827 6.827 13.653 13.653c6.827 3.413 6.827 10.24 13.653 13.653 6.827 6.827 10.24 6.827 13.653 13.653 20.48 20.48 64.853 54.613 85.333 78.507 6.827 6.827 10.24 6.827 17.067 13.653s6.827 6.827 13.653 13.653c10.24 6.827 34.133 34.133 44.373 37.547-3.413 6.827-6.827 10.24-13.653 13.653l-75.093 64.853c-6.827 6.827-6.827 6.827-13.653 13.653-6.827 3.413-10.24 10.24-13.653 13.653l-75.093 64.853c-10.24 10.24-34.133 37.547-47.787 37.547-20.48 0-27.307-17.067-27.307-37.547zM249.173 895.147v-112.64c0-51.2 78.507-54.613 78.507 3.413v109.227c0 51.2-78.507 51.2-78.507 3.413zM631.467 895.147v-119.467c0-44.373 78.507-54.613 78.507 10.24v102.4c0 30.72-20.48 40.96-37.547 40.96v0c-20.48 0-37.547-13.653-37.547-37.547z" />
<glyph unicode="&#xe915;" glyph-name="instagram" d="M512 676.693c34.133 0 71.68-10.24 92.16-20.48 54.613-27.307 88.747-61.44 112.64-112.64 6.827-13.653 10.24-27.307 13.653-40.96 3.413-6.827 3.413-17.067 3.413-23.893 3.413-23.893 3.413-23.893 0-51.2 0-6.827-3.413-17.067-3.413-23.893-23.893-95.573-98.987-167.253-194.56-177.493-40.96-3.413-81.92 0-119.467 17.067-27.307 13.653-47.787 27.307-68.267 47.787-34.133 34.133-61.44 85.333-64.853 133.12-3.413 27.307-3.413 47.787 3.413 75.093 13.653 58.027 44.373 102.4 92.16 136.533 34.133 23.893 85.333 40.96 129.707 40.96zM740.693 792.747v-78.507c0-20.48 17.067-37.547 37.547-37.547h78.507c20.48 0 37.547 17.067 37.547 37.547v78.507c0 20.48-17.067 37.547-37.547 37.547h-78.507c-20.48 0-37.547-17.067-37.547-37.547zM440.32 570.88l27.307 3.413c47.787 0 92.16-75.093 44.373-122.88-54.613-54.613-122.88-3.413-122.88 40.96l3.413 27.307c-17.067-13.653-20.48-58.027-20.48-81.92 0-64.853 64.853-136.533 136.533-136.533 27.307 0 44.373 0 68.267 13.653 34.133 17.067 51.2 34.133 68.267 68.267 27.307 54.613 13.653 122.88-27.307 163.84-34.133 34.133-64.853 44.373-112.64 44.373-17.067 0-58.027-13.653-64.853-20.48zM245.76 601.6h-150.187v163.84c0 54.613 51.2 102.4 102.4 102.4h631.467c51.2 0 102.4-51.2 102.4-102.4v-163.84h-150.187c-6.827 0-13.653 17.067-23.893 30.72-3.413 3.413-6.827 10.24-10.24 13.653l-17.067 17.067c-34.133 37.547-78.507 61.44-126.293 78.507-44.373 13.653-92.16 17.067-139.947 10.24-54.613-10.24-119.467-37.547-157.013-75.093l-13.653-13.653c-23.893-27.307-20.48-20.48-40.96-51.2-3.413-3.413 0-6.827-6.827-6.827zM17.067 768.853v-638.293c0-88.747 85.333-177.493 177.493-177.493h638.293c88.747 0 177.493 85.333 177.493 177.493v638.293c0 88.747-85.333 177.493-177.493 177.493h-638.293c-88.747 0-177.493-85.333-177.493-177.493z" />
<glyph unicode="&#xe916;" glyph-name="map1" d="M389.12 639.147c0 17.067 6.827 37.547 10.24 47.787 3.413 6.827 6.827 13.653 10.24 20.48 34.133 51.2 102.4 71.68 157.013 44.373 58.027-30.72 85.333-92.16 61.44-157.013-3.413-10.24-17.067-27.307-23.893-37.547-3.413-6.827-10.24-10.24-17.067-13.653s-10.24-6.827-17.067-10.24c-40.96-20.48-92.16-17.067-129.707 10.24-17.067 13.653-30.72 27.307-40.96 47.787-6.827 13.653-10.24 34.133-10.24 51.2zM211.627 645.973c0-78.507 34.133-126.293 58.027-187.733l30.72-58.027c3.413-6.827 6.827-10.24 10.24-20.48l40.96-78.507c6.827-13.653 13.653-23.893 20.48-37.547l20.48-37.547c37.547-85.333 81.92-177.493 81.92-273.067h78.507c0 40.96 6.827 71.68 13.653 102.4 30.72 116.053 75.093 184.32 126.293 290.133 3.413 6.827 6.827 10.24 10.24 20.48 3.413 6.827 6.827 13.653 10.24 20.48s6.827 10.24 10.24 20.48c3.413 6.827 6.827 13.653 10.24 20.48l40.96 78.507c3.413 6.827 6.827 13.653 10.24 20.48 17.067 44.373 30.72 71.68 30.72 129.707 0 40.96-13.653 92.16-27.307 119.467-10.24 17.067-17.067 30.72-27.307 47.787l-34.133 40.96-64.853 47.787c-6.827 3.413-17.067 6.827-23.893 13.653-54.613 27.307-133.12 34.133-191.147 17.067-10.24-3.413-17.067-3.413-27.307-6.827s-20.48-6.827-27.307-10.24-34.133-17.067-47.787-27.307l-40.96-34.133-34.133-40.96c-23.893-30.72-37.547-64.853-47.787-102.4-6.827-20.48-10.24-44.373-10.24-68.267z" />
<glyph unicode="&#xe917;" glyph-name="menu" d="M972.8 782.063h-921.6c-18.807 0-34.133-15.326-34.133-34.099 0-21.436 0-42.837 0-64.239 0-18.773 15.326-34.133 34.133-34.133h921.6c18.807 0 34.133 15.36 34.133 34.133 0 21.402 0 42.803 0 64.239 0 18.773-15.326 34.099-34.133 34.099zM51.2 172.919h921.6c18.807 0 34.133-15.326 34.133-34.099 0-21.436 0-42.837 0-64.239 0-18.773-15.326-34.133-34.133-34.133h-921.6c-18.807 0-34.133 15.36-34.133 34.133 0 21.402 0 42.803 0 64.239 0 18.773 15.326 34.099 34.133 34.099zM51.2 477.491h921.6c18.807 0 34.133-15.326 34.133-34.099 0-21.436 0-42.837 0-64.239 0-18.773-15.326-34.133-34.133-34.133h-921.6c-18.807 0-34.133 15.36-34.133 34.133 0 21.402 0 42.803 0 64.239 0 18.773 15.326 34.099 34.133 34.099z" />
<glyph unicode="&#xe918;" glyph-name="nino" d="M460.8 277.333l-81.92 85.333c-6.827 6.827-17.067 10.24-27.307 10.24s-20.48-3.413-27.307-10.24c-6.827-6.827-10.24-17.067-10.24-27.307s3.413-20.48 10.24-27.307l58.027-58.027 17.067-20.48 20.48-23.893v-215.040c0-10.24 3.413-20.48 10.24-27.307s17.067-10.24 27.307-10.24c10.24 0 20.48 3.413 27.307 10.24s10.24 17.067 10.24 27.307v88.747h27.307v-88.747c0-10.24 3.413-20.48 10.24-27.307s17.067-10.24 27.307-10.24c10.24 0 20.48 3.413 27.307 10.24s10.24 17.067 10.24 27.307v215.040l40.96 44.373 58.027 58.027c6.827 6.827 10.24 17.067 10.24 27.307s-3.413 20.48-10.24 27.307c-6.827 6.827-17.067 10.24-27.307 10.24s-20.48-3.413-27.307-10.24l-81.92-85.333h-102.4zM436.907 376.32c0-20.48 6.827-37.547 20.48-51.2s30.72-20.48 51.2-20.48c20.48 0 37.547 6.827 51.2 20.48s20.48 30.72 20.48 51.2c0 20.48-6.827 37.547-20.48 51.2s-30.72 20.48-51.2 20.48c-20.48 0-37.547-6.827-51.2-20.48s-20.48-30.72-20.48-51.2z" />
<glyph unicode="&#xe919;" glyph-name="regreso" d="M17.067 741.547v-662.187c0-17.067 6.827-34.133 13.653-44.373s10.24-17.067 20.48-27.307c20.48-23.893 54.613-37.547 98.987-37.547h655.36c54.613 0 85.333 17.067 109.227 51.2 13.653 17.067 17.067 37.547 20.48 61.44v0 3.413c0 20.48 0 44.373 0 71.68v6.827h-78.507v-78.507c0-3.413 0-10.24-6.827-17.067-6.827-13.653-20.48-20.48-40.96-20.48h-669.013c-13.653 0-23.893 3.413-30.72 6.827s-17.067 17.067-17.067 23.893v539.307h761.173v-116.053h78.507c0 78.507 0 153.6 0 232.107 0 64.853-51.2 116.053-116.053 116.053h-75.093c0-68.267 10.24-116.053-44.373-143.36-27.307-13.653-61.44-6.827-85.333 13.653-10.24 6.827-23.893 30.72-23.893 47.787v85.333h-232.107c0-64.853 13.653-139.947-71.68-153.6-40.96-6.827-81.92 30.72-81.92 71.68v81.92c-64.853 0-112.64 10.24-157.013-30.72-17.067-13.653-34.133-47.787-34.133-78.507zM628.053 888.32v-119.467c0-44.373 78.507-54.613 78.507 10.24v102.4c0 30.72-20.48 40.96-37.547 40.96v0c-20.48 0-37.547-13.653-37.547-37.547zM245.76 888.32v-112.64c0-51.2 78.507-54.613 78.507 3.413v109.227c0 51.2-78.507 51.2-78.507 3.413zM778.24 502.613v-75.093h194.56c13.653 0 34.133-20.48 34.133-34.133v-122.88c0-20.48-20.48-37.547-40.96-37.547h-184.32v-75.093c0-20.48-10.24-37.547-30.72-37.547-6.827 0-23.893 17.067-30.72 23.893s-6.827 6.827-13.653 13.653c-6.827 3.413-6.827 10.24-13.653 13.653-6.827 6.827-10.24 6.827-13.653 13.653-20.48 20.48-64.853 54.613-85.333 78.507-6.827 6.827-10.24 6.827-17.067 13.653s-6.827 6.827-13.653 13.653c-10.24 6.827-34.133 34.133-44.373 37.547 3.413 6.827 6.827 10.24 13.653 13.653l75.093 64.853c6.827 6.827 6.827 6.827 13.653 13.653 6.827 3.413 10.24 10.24 13.653 13.653l75.093 64.853c10.24 10.24 34.133 37.547 47.787 37.547 20.48 0 27.307-17.067 27.307-37.547z" />
<glyph unicode="&#xe91a;" glyph-name="rw1" d="M494.831 877.5l62.669-62.669c13.312-13.278 13.312-34.987 0-48.265l-318.566-318.566 318.566-318.566c13.312-13.278 13.312-34.987 0-48.265l-62.669-62.669c-13.278-13.312-34.953-13.312-48.265 0l-405.367 405.367c-13.278 13.278-13.278 34.987 0 48.265l405.367 405.367c13.312 13.312 34.987 13.312 48.265 0zM920.132 877.5l62.669-62.669c13.278-13.278 13.278-34.987 0-48.265l-318.566-318.566 318.566-318.566c13.278-13.278 13.278-34.987 0-48.265l-62.669-62.669c-13.312-13.312-34.987-13.312-48.265 0l-405.367 405.367c-13.312 13.278-13.312 34.987 0 48.265l405.367 405.367c13.278 13.312 34.953 13.312 48.265 0z" />
<glyph unicode="&#xe91b;" glyph-name="telegram" d="M777.728 79.565c-14.199 0-22.869 11.264-33.075 18.944-10.001 7.509-19.081 14.609-28.843 21.948-9.694 7.202-18.91 14.78-28.672 22.118-10.069 7.543-19.729 14.916-29.594 22.46l-28.638 22.153c-24.030 17.954-65.195 51.917-87.791 67.072l-76.527-68.437c-2.833-2.799-5.052-5.461-8.090-8.021-3.755-3.14-5.052-3.857-8.602-7.475l-43.076-38.741c1.536 18.432 27.682 178.654 28.638 180.77 2.389 5.257 24.542 23.757 31.13 29.559l30.345 29.116c15.531 14.95 32.495 28.604 47.718 43.964l62.157 57.993c6.281 4.847 9.694 9.148 15.258 14.507 15.565 14.985 32.495 28.604 47.718 43.964l11.537 10.752c1.98 1.673 2.15 1.775 3.959 3.482 10.377 9.83 20.241 20.275 31.471 29.252l30.447 29.013c3.209 3.072 4.881 3.652 8.090 6.758 3.038 2.901 5.052 5.12 8.021 8.090l31.607 29.082c5.7 5.734 19.729 15.531 18.91 24.474-2.253 24.747-43.349-7.031-52.907-12.766l-185.822-115.2c-6.929-4.471-13.858-8.567-20.787-12.698l-41.335-25.566c-14.268-8.499-27.034-17.067-41.335-25.566l-71.066-44.134c-3.686-2.219-7.1-4.096-10.854-6.519l-61.781-38.263c-4.335-1.297-107.418 35.601-124.109 41.165l-87.347 29.082c-4.608 1.536-9.523 2.15-11.947 5.427 10.786 2.526 35.055 14.438 45.5 18.944 37.717 16.282 76.117 30.857 113.527 47.548 7.851 3.516 14.507 6.417 22.562 9.626l90.795 38.025c14.916 6.11 29.628 12.902 45.329 19.115l136.090 57.207c51.098 22.050 108.373 44.373 158.652 66.799l113.357 47.684c30.037 12.39 60.894 25.566 90.795 38.093 15.497 6.451 11.537 4.71 3.038-37.751-3.686-18.33-7.68-35.772-10.65-53.794l-15.804-80.828c-1.809-9.148-3.209-18.295-5.257-26.931-8.158-34.816-14.131-72.602-21.163-107.691l-79.019-404.139c-1.502-9.148-2.287-19.661-12.561-19.661zM17.067 473.532c0-26.863 4.096-34.748 20.173-54.17 3.277-3.959 13.892-11.742 18.739-14.711 19.797-12.083 48.333-19.49 71.817-27.307l124.177-41.813c15.394-5.018 10.377-4.028 15.189-18.261 15.804-46.694 31.027-105.506 46.763-152.713 11.503-34.577 23.279-95.403 52.531-113.459 24.132-14.848 52.19-8.499 73.25 8.465 3.174 2.56 5.222 4.949 8.158 7.919l79.326 71.851c3.379 3.447 4.471 4.574 8.431 7.646 3.925 3.004 5.461 5.632 9.216 8.158l53.623-40.55c4.847-3.652 8.738-6.827 13.244-10.274l80.009-61.201c7.782-5.803 34.304-27.17 40.55-30.071 43.93-20.343 100.079-7.612 124.348 40.926 8.158 16.282 19.797 88.474 23.654 107.657l74.752 382.43c3.55 17.783 7.782 37.683 10.684 54.955 3.14 18.5 6.929 35.567 10.581 53.862 5.495 27.58 30.652 147.456 30.652 166.298 0 41.233-28.843 73.114-70.622 73.114-23.279 0-46.114-12.083-63.863-19.149l-177.289-74.206c-19.593-8.738-38.639-16.213-58.3-24.713l-191.113-80.213c-4.779-2.082-9.591-4.267-14.711-6.349-9.865-3.959-19.49-8.158-29.764-12.356l-147.217-62.123c-10.411-4.471-19.354-7.851-29.662-12.459l-58.47-24.542c-24.371-9.796-101.035-40.994-115.917-51.337l-13.619-11.162c-9.626-9.591-19.319-25.156-19.319-40.141z" />
<glyph unicode="&#xe91c;" glyph-name="tag" d="M518.827 919.040l-477.867-477.867c-30.72-30.72-30.72-85.333 0-116.053l344.747-344.747c30.72-30.72 85.333-30.72 116.053 0l481.28 481.28c17.067 17.067 27.307 37.547 23.893 64.853l-13.653 327.68c-3.413 44.373-37.547 78.507-81.92 81.92l-327.68 13.653c-23.893 0-44.373-6.827-61.44-23.893zM901.12 833.707c23.893-20.48 23.893-58.027 0-81.92-20.48-23.893-58.027-23.893-81.92 0-23.893 20.48-23.893 58.027 0 81.92 20.48 23.893 58.027 23.893 81.92 0z" />
<glyph unicode="&#xe91d;" glyph-name="usuario" d="M285.491 716.459c0-68.437 5.018-90.658 26.59-153.054 4.676-13.517 9.694-22.972 15.735-35.021 13.79-27.614 30.242-54.374 49.152-77.756 17.101-21.197 25.668-19.115 25.668-62.191 0-42.974-42.223-54.579-75.913-66.594-45.363-16.179-121.344-58.47-160.324-87.62l-38.605-33.655c-15.258-15.428-37.547-48.060-37.547-69.837v-40.994c0-97.724 195.277-128.751 275.319-130.799 44.407-1.126 78.643-5.871 130.799-5.871l162.065 5.837c39.902 1.911 83.968 7.885 118.682 16.009 57.583 13.517 156.604 40.721 156.604 114.825 0 61.85 2.219 62.089-35.396 109.056-36.215 45.193-143.497 100.83-200.602 121.583-43.11 15.633-76.39 18.091-76.39 68.062 0 16.043 3.618 34.748 10.035 44.646 6.451 9.933 25.054 25.907 47.684 63.59 32.734 54.443 48.64 102.332 58.368 166.161 3.686 24.405 0.546 78.541-3.994 101.308-21.197 105.984-107.179 178.79-213.641 178.79-41.643 0-72.602-4.267-106.735-20.173-23.484-10.957-47.855-27.136-65.604-45.67-38.878-40.619-61.952-104.414-61.952-160.631z" />
<glyph unicode="&#xe91e;" glyph-name="star1" d="M17.067 550.434c0-22.153 28.843-44.066 49.186-64.41 9.967-9.933 18.5-18.398 28.399-28.399 5.939-6.042 9.455-7.782 15.258-13.141 18.739-17.374 56.934-59.324 72.055-71.953l29.321-27.477c38.571-38.537 32.017-15.326 17.306-103.526l-25.498-148.924c-1.877-11.435-4.198-23.108-6.383-36.215-2.662-16.077-5.188-24.064-5.188-41.472 0-21.879 18.398-38.537 40.55-38.537 12.083 0 27.511 9.728 36.523 14.199 6.622 3.277 10.308 5.939 16.896 9.489l225.143 117.282c5.359 0.717 60.791-29.355 69.666-34.099 6.588-3.584 10.274-6.246 16.862-9.523l52.087-26.999c12.629-6.281 21.572-11.844 34.475-18.261 15.258-7.612 94.549-52.087 106.155-52.087 24.61 0 42.598 15.36 42.598 40.585 0 16.794-8.158 55.023-11.298 73.899-4.13 24.883-37.376 208.998-37.376 224.29 0 1.98 50.825 52.531 56.491 57.071 21.094 16.828 51.268 49.63 72.806 71.236 5.905 5.939 9.489 7.543 15.258 13.107l56.764 56.832c9.83 9.83 21.811 18.295 21.811 37.035 0 39.561-39.322 41.506-62.771 44.749l-233.711 33.997c-8.26 1.161-14.95 1.536-23.313 3.072-11.332 2.116-9.523 4.335-14.234 14.165-11.605 24.269-25.327 47.445-35.738 71.782-11.025 25.907-22.835 47.479-35.226 72.26-12.322 24.576-23.996 46.899-35.874 71.646-14.063 29.321-19.183 57.515-56.081 57.515-31.607 0-40.823-33.348-51.405-56.149-30.14-65.058-73.865-147.866-106.803-215.689-8.738-17.988 0.41-13.278-34.611-18.125l-235.554-34.236c-15.838-2.253-33.451-3.14-44.749-10.001-10.957-6.656-19.797-18.193-19.797-34.987z" />
<glyph unicode="&#xe91f;" glyph-name="question" d="M315.631 274.807v11.366c0 42.974 7.953 80.896 23.654 114.005 15.701 33.075 43.008 67.379 81.647 103.39 5.325 4.813 12.561 11.332 21.982 19.797 70.758 65.229 106.052 110.387 106.052 135.509 0 18.364-10.889 32.836-32.631 43.486-21.47 10.615-51.2 15.94-88.883 15.94-36.727 0-76.083-2.901-118.101-8.465-41.813-5.803-94.959-15.94-158.959-30.686l45.193 240.606c52.873 7.475 103.834 13.278 153.122 17.135 49.289 4.096 96.87 6.042 142.746 6.042 124.416 0 219.341-20.787 284.57-62.327 64.956-41.54 97.587-101.922 97.587-181.146 0-74.172-57.515-159.198-172.715-255.556-9.899-7.987-17.408-14.029-22.699-18.364-32.119-27.307-53.385-51.473-63.795-72.465-10.377-21.026-16.179-47.104-17.613-78.268h-281.156zM285.184-46.933l11.332 257.98h303.172l-9.899-257.98h-304.606z" />
<glyph unicode="&#xe920;" glyph-name="time" d="M261.495 875.998c24.030-0.546 43.008-11.776 56.218-24.132 18.569-17.374 17.033-31.13 27.443-52.873 31.232 2.594 197.7 109.363 409.873-48.708 76.288-56.866 126.839-154.487 141.107-253.884 14.268-99.362-21.402-225.86-89.873-299.076-19.456-20.821-7.578-12.937-29.764-30.481-18.398-14.575-22.323-23.654-55.74-44.681-67.072-42.257-143.053-67.038-248.183-59.392-45.022 3.277-117.043 27.341-150.289 47.241-21.811 13.039-52.736 33.246-70.076 50.415-60.177 59.631-96.631 112.060-117.965 200.021-3.959 16.282-10.411 47.445-10.377 67.106 0.034 25.429 5.325 10.547 7.168 33.28 6.895 85.982 10.684 91.819 50.108 150.699 8.977-6.007 22.699-17.715 30.959-25.941 61.099-60.791 59.085 2.901 64.307 37.82 7.236 48.538 5.154 117.828 5.154 168.892 0 28.809-58.368 20.070-93.73 20.070-28.979 0-61.577-0.819-88.986-4.71-62.771-8.909-75.025-1.536-75.025-32.085 0-10.581 50.961-51.814 63.59-60.245-6.827-29.355-70.281-121.446-70.281-244.361 0-77.79 3.243-123.187 32.461-198.519 24.201-62.259 78.473-146.364 129.195-188.791l25.293-21.606c278.699-227.055 698.402-81.34 788.514 270.268 38.81 151.415-4.676 308.599-93.15 421.786-59.972 76.8-148.173 136.26-241.152 167.219-39.287 13.073-82.739 20.139-126.942 21.606h-35.738c-65.195-2.15-130.116-16.077-183.91-40.175l-50.21-26.761zM432.196 457.557c0-39.629 6.144-42.394 25.873-67.823 8.26-10.65 16.998-128.137 17.647-146.398 2.287-64.273 48.094-49.63 62.942-32.836 11.776 13.346 10.206 92.604 13.141 114.108 3.925 28.706-2.867 53.111 8.909 74.752 6.519 12.015 9.83 13.244 14.097 29.491 4.745 18.091 1.331 26.658 2.765 34.987 1.195 6.997 102.844 120.183 116.702 136.67 12.766 15.189 55.842 51.302 27.921 73.421-28.262 22.357-57.207-15.053-88.303-46.49-11.708-11.878-20.48-16.964-31.846-28.399-10.479-10.513-21.094-22.733-32.119-31.505-63.693-50.825-23.040-43.042-77.38-46.455-30.925-1.946-60.348-30.618-60.348-63.522z" />
<glyph unicode="&#xe921;" glyph-name="mail" d="M642.799 424.141l-57.617-37.137c-19.661-13.175-39.049-25.327-58.402-38.263-18.978 12.698-37.683 24.405-57.207 37.513l-58.778 37.888c-7.987-4.233-11.127-7.236-18.569-12.39l-252.655-180.395c-5.12-3.857-13.449-10.752-18.773-12.151l73.011 73.933c6.212 6.178 8.533 10.513 14.438 16.486l74.377 74.479c17.749 21.231 67.823 67.482 74.035 76.766-3.789 5.666-10.854 9.284-16.794 14.131l-267.401 208.179c3.277 4.608 0 1.843 7.031-2.594l148.446-79.701c5.666-3.413 9.557-4.745 15.258-7.919 5.564-3.106 7.475-4.71 13.551-7.748l255.249-137.216c6.315-3.209 9.114-5.393 14.78-8.397 5.188 2.731 8.363 5.052 13.517 7.748 4.71 2.458 9.079 4.233 14.165 7.1l141.858 76.629c6.076 3.038 7.953 4.608 13.517 7.748 5.12 2.833 9.489 4.642 14.165 7.066l85.129 46.353c4.71 2.731 8.909 4.301 14.097 7.202l149.402 80.623c2.833 1.775 4.574 3.345 6.554 5.052 4.779-3.413 0.102-2.526-15.735-15.189-6.042-4.847-11.332-8.704-17.374-13.551l-71.543-56.047c-12.493-9.318-23.245-18.5-35.908-27.887-6.69-4.983-10.752-8.602-17.408-13.551-6.485-4.813-11.059-8.465-17.34-13.585-12.288-9.967-23.825-17.988-35.874-27.955l-53.214-41.472c-5.905-4.881-14.097-9.421-17.852-15.019l233.916-239.753c-3.072-4.301-1.399-1.707-4.506 1.297-3.038 2.97-0.751 0.956-4.301 3.413-46.66 32.393-262.622 189.508-279.245 198.315zM983.040 687.070l0.58-0.58c-0.034 0.034-0.751 0.375-0.58 0.58zM68.608 687.070l0.546-0.58c-0.034 0.034-0.751 0.375-0.546 0.58zM31.846 690.927v-467.866c0-35.089 18.364-61.44 41.062-82.671 25.327-23.723 61.065-27.546 96.222-27.546h715.332c56.627 0 95.3 11.947 124.143 61.474 6.315 10.854 13.107 32.085 13.107 48.742v467.866c0 35.089-18.364 61.44-41.028 82.671-9.523 8.909-26.214 17.749-40.141 21.743-15.189 4.403-36.386 5.803-56.081 5.803h-715.332c-19.695 0-40.892-1.399-56.081-5.803-44.407-12.8-81.203-57.822-81.203-104.414z" />
<glyph unicode="&#xe922;" glyph-name="phone" d="M50.893 652.322c0-135.066 59.29-244.326 136.294-351.437 29.559-41.097 78.814-99.703 113.937-134.793l42.086-42.121c5.769-5.837 9.148-7.509 14.746-12.698l30.276-26.522c65.775-57.378 168.653-116.463 258.423-127.42 9.865-1.229 14.95-2.389 25.088-2.321 11.435 0.034 19.251-2.321 27.307-1.877l50.005 4.949c72.772 12.937 112.845 39.322 164.147 84.617 10.377 9.182 35.977 30.754 43.486 40.755 25.259 33.655 19.558 60.553-4.813 92.911-22.391 29.833-88.132 86.221-118.682 106.564-40.004 26.658-82.227 41.199-126.805 15.531-11.298-6.519-20.685-16.623-30.379-24.439l-28.843-26.010c-7.168-9.353-18.569-20.412-28.297-26.556-69.734-43.93-159.471 54.135-203.196 98.338-5.564 5.632-7.1 9.216-12.663 14.78l-48.538 59.187c-3.686 5.291-8.021 10.445-11.742 15.701-18.842 26.692-50.927 80.247-50.927 113.596 0 27.58 2.185 42.155 25.941 64.171l42.052 32.393c54.682 46.046 73.694 74.445 45.363 149.948-8.533 22.767-40.516 72.226-54.989 93.901-29.116 43.691-71.168 103.834-131.004 69.12-12.356-7.202-44.237-36.898-61.406-50.244-62.43-48.469-106.871-145.101-106.871-230.025z" />
<glyph unicode="&#xe923;" glyph-name="eliminar" d="M249.344 94.857v552.926h533.606v-552.926c0-25.327-6.042-54.135-36.727-54.135h-460.151c-30.481 0-36.727 28.399-36.727 54.135zM404.036 819.849c0 23.040 17.852 47.104 41.745 52.975 20.070 4.881 118.306 4.71 139.162 0.341 9.796-2.048 15.77-6.144 22.153-10.718 20.582-14.746 21.197-39.117 21.197-60.006h-224.256v17.408zM322.833 802.441h-135.339c-60.416 0-52.19-37.342-52.19-77.312h-38.673v-77.346h75.401v-550.98c0-59.46 17.271-94.276 61.747-119.979 12.425-7.202 28.843-13.414 48.435-13.414h467.866c17.749 0 35.396 5.632 47.241 12.663 8.363 4.983 11.503 6.383 18.773 12.186 32.324 25.737 44.203 58.778 44.203 108.544v550.98h75.401v77.346h-38.673c0 39.97 8.226 77.312-52.224 77.312h-135.305c0 54.135-20.992 108.271-67.652 133.427-13.039 7.031-30.515 17.374-50.278 17.374h-150.801c-31.676 0-66.355-24.508-85.538-47.889-20.855-25.395-32.393-57.242-32.393-102.912zM630.204 114.176h71.543c4.471 0 5.803 1.365 5.803 5.803v452.403h-77.346v-458.206zM324.745 119.979c0-4.437 1.365-5.803 5.803-5.803h71.543v458.206h-77.346v-452.403zM477.491 119.979c0-4.437 1.331-5.803 5.803-5.803h65.707c4.471 0 5.803 1.365 5.803 5.803v452.403h-77.312v-452.403z" />
<glyph unicode="&#xe924;" glyph-name="www" d="M237.636 151.211c7.339-10.991 43.554-38.605 54.135-46.387l30.481-19.763c5.769-3.516 10.479-5.495 16.623-8.533l18.125-6.997c-8.875 10.206-15.497 26.897-21.641 39.083-7.236 14.336-11.537 28.843-18.125 42.598h-79.599zM786.364 151.211h-79.599c-6.588-13.756-10.889-28.262-18.125-42.598-6.144-12.186-12.766-28.877-21.641-39.083l18.125 6.997c6.144 3.038 10.854 5.018 16.623 8.533l30.481 19.763c10.581 7.782 46.797 35.396 54.135 46.387zM616.721 151.211h-209.442c3.55-7.373 5.7-13.722 9.728-21.675 22.016-43.076 55.159-87.45 94.993-97.553 39.834 10.103 72.977 54.477 94.993 97.553 4.028 7.953 6.178 14.302 9.728 21.675zM512 235.008h134.042c10.991 47.104 23.040 106.052 23.040 163.362h-314.163c0-57.31 12.049-116.258 23.040-163.362h134.042zM512 482.133h157.082c0 58.88-11.844 115.337-23.040 163.362h-268.083c-11.196-48.026-23.040-104.482-23.040-163.362h157.082zM512 729.293h104.721c-4.608 19.729-43.315 80.043-58.3 92.501-13.79 11.469-28.092 23.893-46.421 28.843-18.33-4.949-32.631-17.374-46.421-28.843-14.985-12.459-53.692-72.772-58.3-92.501h104.721zM512 935.834c109.022-5.53 209.169-40.277 291.601-107.622 19.012-15.531 48.367-41.199 63.249-60.348 35.908-46.251 40.277-43.622 74.513-111.889 29.833-59.494 39.117-106.086 47.616-170.223 1.331-10.103-0.273-20.582 0.853-30.549 7.27-63.59-14.985-149.060-37.683-205.858-3.209-8.055-5.734-12.254-8.977-20.343l-34.065-60.177-39.595-52.599c-5.12-6.11-10.411-9.762-15.497-15.906l-30.447-30.276c-3.857-3.584-4.574-3.584-8.158-6.485-83.251-67.174-185.719-117.589-303.411-117.589s-220.16 50.415-303.411 117.589c-3.584 2.901-4.301 2.901-8.158 6.485l-30.447 30.276c-5.086 6.144-10.377 9.796-15.497 15.906l-39.595 52.599-34.065 60.177c-3.243 8.090-5.769 12.288-8.977 20.343-22.699 56.798-44.954 142.268-37.683 205.858 1.126 9.967-0.478 20.446 0.853 30.549 8.499 64.137 17.783 110.729 47.616 170.223 34.236 68.267 38.605 65.638 74.513 111.889 14.882 19.149 44.237 44.817 63.249 60.348 82.432 67.345 182.579 102.093 291.601 107.622zM903.646 398.37h-150.801c0-28.57-3.277-58.539-6.861-85.299l-14.063-78.063h119.364c19.558 36.966 18.261 31.676 33.519 73.284 7.646 20.855 18.842 62.43 18.842 90.078zM752.845 482.133h152.917c-1.502 3.14-6.724 38.81-7.851 44.51-3.14 15.77-6.963 28.297-11.81 42.667-9.387 27.989-31.505 70.963-32.7 76.186h-121.481c10.479-44.988 20.924-109.056 20.924-163.362zM706.765 729.293h79.599c-2.594 7.134 0.239 1.399-5.564 6.963-2.731 2.628-3.857 3.482-6.485 6.11-20.48 20.378-46.763 39.356-71.782 53.862l-25.054 12.663c-3.004 1.775-0.034-0.239-3.789 2.492-2.082 1.468-3.277 2.594-4.608 3.755l-2.458-1.741c0-0.683 1.161-0.853 1.263-1.536 0.171-0.956 1.468-1.98 1.741-2.458l8.499-14.541c7.578-13.551 25.873-53.589 28.638-65.57zM120.354 398.37c0-27.648 11.196-69.222 18.842-90.078 15.258-41.609 13.961-36.318 33.519-73.284h119.364l-14.063 78.063c-3.584 26.761-6.861 56.73-6.861 85.299h-150.801zM271.155 482.133c0 54.306 10.445 118.374 20.924 163.362h-121.481c-1.195-5.222-23.313-48.196-32.7-76.186-4.847-14.37-8.67-26.897-11.81-42.667-1.126-5.7-6.349-41.37-7.851-44.51h152.917zM317.235 729.293c2.765 11.981 21.060 52.019 28.638 65.57l8.499 14.541c0.273 0.478 1.57 1.502 1.741 2.458 0.102 0.683 1.263 0.853 1.263 1.536l-2.458 1.741c-1.331-1.161-2.526-2.287-4.608-3.755-3.755-2.731-0.785-0.717-3.789-2.492l-25.054-12.663c-25.020-14.507-51.302-33.485-71.782-53.862-2.628-2.628-3.755-3.482-6.485-6.11-5.803-5.564-2.97 0.171-5.564-6.963h79.599z" />
<glyph unicode="&#xe925;" glyph-name="vimeo" d="M584.602 647.612c58.846 0 125.372 11.059 125.372-79.189 0-57.276-46.455-154.863-78.677-198.485-38.81-52.599-80.589-60.894-118.75-2.253-38.946 59.904-39.936 157.662-50.586 233.199-6.929 49.118-17.135 114.005-32.393 155.682-64.41 175.479-201.148 61.269-289.963-10.411l-122.539-108.442c5.632-10.615 12.937-20.036 19.661-29.798 17.715-25.737 46.387-16.043 71.578-8.636 97.826 28.74 83.695-17.442 126.532-133.12 16.623-44.885 34.714-122.402 46.865-170.94 19.593-78.336 31.846-133.666 68.608-201.933 8.055-14.95 13.449-20.617 23.040-33.075 19.49-25.361 44.681-36.932 71.612-39.492h24.883c39.629 3.482 80.555 22.426 111.479 42.837 15.974 10.513 30.106 21.914 45.705 33.485 10.035 7.441 12.186 10.718 21.231 18.364 60.723 51.371 121.993 125.645 165.342 191.044 21.231 32.051 40.175 61.85 59.085 95.949 40.653 73.216 134.246 260.574 134.246 340.924 0 41.677-1.468 78.575-39.492 105.677-23.381 16.623-55.74 26.283-95.778 26.283-86.494 0-134.042-35.396-183.398-73.967-40.687-31.778-91.887-103.083-103.663-153.702z" />
<glyph unicode="&#xe926;" glyph-name="youtube" d="M670.993 446.566l-2.082-1.331-1.843-1.604-4.062-2.219-61.815-35.499c-12.561-7.236-181.487-105.165-185.583-106.086l0.137 297.335c4.267-0.99 53.965-30.447 61.986-35.157l189.338-108.681 1.809-1.638 2.116-1.297 1.843-0.41c2.15-2.526 1.775 4.471 1.809-3.516l-3.652 0.102zM17.067 442.812c0-64.922 3.618-134.997 12.868-196.198 5.086-33.929 10.377-54.989 26.931-78.063 13.551-18.842 31.915-35.396 59.87-44.817 44.749-15.019 139.162-16.555 189.338-19.797 33.178-2.15 68.164-2.082 101.274-3.072 106.974-3.14 173.295-0.819 284.399 1.809 54.613 1.297 188.484 3.14 236.237 26.453 42.769 20.821 62.566 59.119 70.212 104.789 4.164 24.61 8.738 53.658 8.738 79.189v269.619c0 42.223-10.138 112.811-30.14 140.663-25.088 34.953-51.473 53.043-110.967 59.46-106.667 11.469-217.429 13.687-327.646 13.79-86.665 0.034-355.396 0.649-422.025-22.903-26.044-9.216-46.148-27.443-59.392-45.193-15.258-20.514-22.63-46.865-26.829-77.687-9.66-70.793-12.868-134.622-12.868-208.043zM667.068 453.325l1.809-1.638 2.116-1.297 1.843-0.41c-0.99-4.062 0.751-1.502-1.843-3.413l-2.082-1.331-1.843-1.604c-5.427-1.024 0.649 1.058-1.877-0.444-1.741-1.024-1.161-0.717-2.185-1.775l4.062 2.219 1.843 1.604 2.082 1.331 3.652-0.102c-0.034 7.987 0.341 0.99-1.809 3.516l-1.843 0.41-2.116 1.297-1.809 1.638-4.062 2.219c0.239-0.239 0.512-0.307 0.649-0.717 0.137-0.375 0.546-0.512 0.717-0.58 1.809-0.922 0.273-0.444 2.697-0.922z" />
<glyph unicode="&#xe927;" glyph-name="ivoox" d="M417.553-38.161h190.157c3.994 179.2 0.307 363.076 0.307 542.822 0 27.989 3.311 112.538-2.731 133.427-11.742 40.311-40.277 46.046-88.132 46.046-90.112 0-180.224 0-270.336 0l1.195-184.047h169.199l0.341-538.249zM504.218 941.261c57.924 0 104.858-46.967 104.858-104.858 0-57.924-46.933-104.892-104.858-104.892s-104.858 46.967-104.858 104.892c0 57.89 46.933 104.858 104.858 104.858z" />
<glyph unicode="&#xe928;" glyph-name="admin" d="M568.627 199.953c-12.459-2.901-32.905-20.617-44.817-23.415 0.546-6.519 11.23-25.054 15.906-36.727 5.222-13.141 9.421-25.156 14.029-40.55 10.513-35.089 14.882-66.628 14.882-105.984 0-16.657-93.935-14.131-116.975-1.946 0 48.196 11.742 100.181 29.252 144.282 3.857 9.762 16.862 32.768 17.545 40.926-12.322 2.867-34.133 20.446-46.797 23.415 0.58 25.395 56.047 49.903 58.778 50.074 3.55 0.205 57.617-22.972 58.197-50.074zM301.534 718.575c0-52.497 13.38-75.878 13.653-87.723-15.053-4.028-11.708-28.262-11.708-40.96 0-23.757 8.977-47.718 16.384-65.502 3.413-8.26 10.991-19.285 16.725-24.235 14.95-12.868 16.862-4.574 20.787-20.105 2.867-11.23 5.7-21.265 9.865-31.095 7.885-18.569 16.93-37.069 28.672-53.248 4.642-6.349 14.814-17.101 14.814-26.146 0-26.249-18.739-52.053-42.667-56.764-24.849-4.915-54.067-12.527-77.653-21.777-63.044-24.781-77.449-31.266-130.389-72.397-18.944-14.711-49.562-52.941-49.562-84.992 0-78.78-12.902-107.554 59.87-138.991 49.766-21.504 96.836-26.044 149.845-33.417 8.26-1.161 21.026-2.697 28.16-3.038 160.529-7.612 292.42-13.21 450.628 32.905 30.14 8.772 64.785 21.163 90.283 38.366 6.758 4.574 11.059 9.079 16.179 15.019 12.561 14.507 8.329 44.919 8.329 71.612 0 71.817-61.508 119.637-118.921 148.207-38.229 18.978-76.8 34.202-120.866 44.851-8.738 2.116-18.637 3.379-27.136 6.007-7.612 2.355-16.35 6.144-21.982 11.196-30.515 27.375 7.1 69.052 15.872 84.241 8.294 14.268 20.582 39.185 25.668 56.218 9.796 32.631 9.182 12.868 33.314 48.572 22.733 33.69 21.026 52.634 21.026 90.112 0 34.441-13.005 12.698-6.007 44.954 16.213 74.581 12.083 249.481-105.131 249.481-10.82 0-11.571-1.98-21.436-1.98-3.516 13.175-27.989 27.273-41.506 32.631-60.45 23.996-124.826 12.595-173.466-30.208-42.291-37.205-71.646-116.634-71.646-181.794z" />
<glyph unicode="&#xe929;" glyph-name="bussines" d="M659.081 426.462c14.575 5.7 18.057-7.953 37.683-24.951 39.492-34.167 76.732-83.49 112.572-62.874 14.199 8.158 32.7 29.15 25.020 55.535-5.393 18.603-35.772 39.595-52.838 54.613-49.459 43.554-72.090 70.861-115.2 112.196-7.714 7.373-14.746 12.732-22.016 20.446-16.589 17.681-48.64 60.518-69.734 47.206-5.905-3.721-15.462-15.735-20.753-21.811-33.587-38.605-97.894-70.349-146.33-49.732-16.009 6.827-36.318 28.604-21.026 49.493 16.316 22.255 70.417 71.134 79.565 86.084-80.759-11.059-106.325-50.688-193.775-49.084-9.353-39.083-98.202-231.253-90.18-251.767 4.813-6.929 10.65-8.294 20.992-11.913l37.683 35.021c29.867 26.283 58.539 55.671 90.829 16.179 13.926-17.033 16.179-25.702 9.114-50.415 36.625 3.516 58.846-22.801 56.252-57.788 21.504 8.636 36.181 14.643 55.603-3.174 11.332-10.411 24.781-28.331 16.759-51.234 6.622 3.584 13.517 9.626 24.371 10.854 5.495 0.614 12.151-0.717 16.521 0.307 7.748 1.775-0.785 2.185 10.308 4.949 8.158-3.106 61.201-51.541 69.393-60.006 15.019-15.531 51.029-52.941 83.319-22.187 10.615 10.069 18.876 27.409 11.264 46.797-4.506 11.469-70.69 71.1-82.125 80.316-7.748 6.246-12.527 5.632-11.503 17.818 12.663-0.068 62.771-51.849 80.725-66.048 21.538-17.067 54.272-62.327 90.556-17.783 12.151 14.882 17.954 35.021 4.164 55.057l-75.674 69.257c-20.582 22.016-36.932 22.016-31.539 38.639zM583.919 213.606l-38.946 33.519c6.724-43.964-16.043-50.586-37.478-67.891 3.652-6.997 0.41-1.57 4.881-7.066 6.895-8.397 26.249-25.6 35.806-29.355 35.294-13.824 77.619 37.513 35.738 70.793zM459.162 272.691c9.865 23.552-25.498 66.355-58.368 37.239-10.786-9.557-20.036-16.964-32.222-27.75-11.708-10.411-23.177-12.117-28.194-29.286-8.806-30.208 29.184-63.249 58.027-38.059 12.698 11.093 55.91 46.251 60.757 57.856zM533.436 217.702c11.605 27.921-24.61 69.53-55.296 42.325-10.82-9.557-55.433-44.749-60.416-54.579-13.449-26.487 22.391-68.676 55.33-42.769 5.12 4.028 11.605 10.342 15.838 14.131 12.288 11.127 39.049 27.716 44.544 40.892zM382.771 317.679c15.258 25.225-19.319 69.803-52.804 45.568l-48.708-41.267c-41.097-31.095 6.758-83.251 39.151-59.221 11.401 8.499 56.047 44.442 62.362 54.921zM331.093 387.652c13.756 23.074-21.914 69.222-55.74 42.633-9.216-7.236-55.842-47.206-60.006-54.921-14.029-26.112 23.279-70.246 54.886-42.394 13.892 12.288 51.917 39.697 60.86 54.682zM819.063 702.566c12.083-81.647 23.552-163.533 35.362-246.17 9.182-64.239 3.516-77.551 68.301-68.437 45.705 6.451 92.501 0 84.309 53.589-12.595 82.603-23.723 164.796-35.499 246.886-8.67 60.382-0.956 76.937-67.277 67.379-19.695-2.833-41.779-4.745-60.86-8.806-22.596-4.813-28.297-17.715-24.337-44.442zM144.418 739.942c-19.797-8.090-19.695-20.924-30.106-48.606l-84.924-227.465c-22.528-60.689-14.199-58.266 51.678-83.217 17.067-6.485 44.169-20.89 62.362-13.414 15.326 6.281 20.343 30.72 27.546 50.005l84.821 227.601c23.893 63.215 6.11 58.846-51.473 81.374-16.145 6.315-43.622 20.412-59.904 13.722zM808.653 693.18c-62.532-4.745-97.348-5.803-153.19 14.404-46.046 16.657-89.702 35.465-137.284 9.796-47.548-25.668-75.81-69.598-111.718-105.779-6.417-6.485-18.261-12.595-12.493-27.716 13.687-35.908 83.115-23.142 124.826 5.393 51.575 35.26 46.080 82.091 100.215 34.406 50.551-44.51 169.097-189.747 229.82-202.513l-40.175 272.009z" />
<glyph unicode="&#xe92a;" glyph-name="download" d="M185.139 191.181v61.201c0 18.807-15.326 34.133-34.133 34.133h-99.806c-18.807 0-34.133-15.326-34.133-34.133v-45.568c0-140.698 115.132-255.829 255.863-255.829h478.14c140.732 0 255.863 115.132 255.863 255.829v45.568c0 18.807-15.326 34.133-34.133 34.133h-99.806c-18.807 0-34.133-15.326-34.133-34.133v-61.201c0-39.458-32.29-71.782-71.782-71.782h-510.157c-39.492 0-71.782 32.324-71.782 71.782zM800.973 615.049h-121.207v241.527c0 48.64-39.799 88.439-88.439 88.439h-158.652c-48.64 0-88.439-39.799-88.439-88.439v-241.527h-121.139c-12.39 0-22.972-7.031-27.819-18.432-4.813-11.401-2.492-23.893 6.144-32.802l288.905-297.984c5.905-6.076 13.21-9.182 21.675-9.182 8.499 0 15.804 3.106 21.709 9.182l288.939 297.984c8.636 8.909 10.957 21.402 6.144 32.802-4.847 11.401-15.428 18.432-27.819 18.432z" />
<glyph unicode="&#xe92b;" d="M68.267 669.867c6.827-3.413 34.133-23.893 40.96-30.72l126.293-95.573 3.413 3.413c3.413 3.413 0 0 3.413 3.413 23.893 61.44 23.893 54.613 64.853 102.4 23.893 30.72 71.68 58.027 109.227 71.68 71.68 27.307 167.253 20.48 238.933-20.48l40.96-27.307c10.24 6.827 27.307 27.307 37.547 34.133l88.747 88.747c6.827 6.827 10.24 13.653 20.48 17.067-10.24 13.653-64.853 51.2-85.333 61.44-146.773 81.92-317.44 85.333-467.627 10.24-10.24-3.413-13.653-6.827-23.893-13.653-30.72-17.067-58.027-40.96-85.333-61.44-34.133-27.307-95.573-105.813-112.64-150.187z" />
<glyph unicode="&#xe92c;" glyph-name="tiktok" d="M834.109 731.238c-6.656 3.43-13.21 7.281-19.476 11.346-18.299 12.063-35.154 26.419-50.043 42.506-37.325 42.701-51.261 86.026-56.402 116.367l0.195 0.010c-4.291 25.18-2.519 41.472-2.243 41.472h-170.004v-657.367c0-8.827 0-17.551-0.369-26.173 0-1.075-0.102-2.058-0.164-3.215 0-0.471 0-0.963-0.102-1.464 0-0.123 0-0.246 0-0.369-3.645-47.892-30.884-90.849-72.632-114.575-21.371-12.145-45.558-18.555-70.144-18.555-0.051 0-0.143 0-0.195 0-79.206 0-143.401 64.584-143.401 144.343s64.195 144.343 143.401 144.343c0.041 0 0.102 0 0.143 0 14.93 0 29.829-2.376 44.022-6.994l0.205 173.097c-13.394 1.72-26.972 2.601-40.468 2.601-74.179 0-146.043-26.143-202.865-73.789-29.235-25.416-53.965-55.88-72.776-89.774-7.178-12.37-34.253-62.085-37.53-142.776-2.058-45.793 11.694-93.245 18.248-112.855v-0.42c4.127-11.551 20.101-50.954 46.152-84.173 20.951-26.593 45.834-50.043 73.636-69.448v0.42l0.41-0.42c82.289-55.941 173.537-52.265 173.537-52.265 15.8 0.645 68.71 0 128.799 28.477 66.652 31.57 104.591 78.602 104.591 78.602 24.228 28.078 43.54 60.191 56.975 94.74 15.38 40.438 20.521 88.934 20.521 108.319l0.020 348.723c2.058-1.239 29.522-19.405 29.522-19.405s39.578-25.364 101.315-41.882c44.298-11.756 103.977-14.223 103.977-14.223v168.765c-20.91-2.273-63.375 4.332-106.834 25.999z" />
<glyph unicode="&#xe92d;" glyph-name="chat2" d="M525.346 142.302c66.287 0 122.505 15.599 175.787 38.434l42.94 21.299c5.188 2.867 8.602 5.53 12.971 8.465 45.295 30.14 78.404 57.071 111.036 103.185 87.313 123.494 77.039 275.49-4.437 385.058-19.354 26.010-37.888 45.056-63.113 65.399l-49.664 36.011c-17.783 11.537-38.912 20.002-57.378 28.297-47.821 21.436-84.139 27.068-135.578 33.86-7.066 0.922-13.79 0.375-20.958 0.444-10.24 0.102-10.854 1.741-19.456 2.116-8.636 0.375-11.674-1.638-19.422-2.048-6.895-0.375-14.438 0.478-21.333-0.102-63.078-5.086-141.585-28.126-195.243-61.781-8.909-5.632-16.794-10.991-25.702-17.135l-35.772-28.501c-4.779-4.164-6.929-5.052-11.674-9.762l-39.117-44.612c-83.422-110.729-93.764-258.014-7.68-384.922 17.34-25.6 39.219-47.718 61.747-68.71l1.98-1.911c23.927-24.883 8.26-75.605-1.741-101.171-11.981-30.515-25.532-42.359-41.779-63.386-6.349-8.26-10.445-10.581-18.057-16.998-6.827-5.734-11.332-10.377-18.739-16.316-4.813-3.891-15.974-12.288-18.842-16.213l46.592 6.007c51.029 10.308 105.574 30.481 150.187 56.218 98.236 56.627 62.225 62.669 139.264 51.814 24.815-3.482 38.844-3.038 63.181-3.038zM716.527 576.819c32.973 0 59.733-26.761 59.733-59.733 0-33.007-26.761-59.733-59.733-59.733-33.007 0-59.733 26.726-59.733 59.733 0 32.973 26.726 59.733 59.733 59.733zM512 576.819c32.973 0 59.733-26.761 59.733-59.733 0-33.007-26.761-59.733-59.733-59.733-33.007 0-59.733 26.726-59.733 59.733 0 32.973 26.726 59.733 59.733 59.733zM307.473 576.819c33.007 0 59.733-26.761 59.733-59.733 0-33.007-26.726-59.733-59.733-59.733-32.973 0-59.733 26.726-59.733 59.733 0 32.973 26.761 59.733 59.733 59.733zM17.067-3.721v9.83c1.877 20.855 14.78 43.247 26.795 56.832l44.817 38.912c39.185 31.949 58.675 47.889 70.554 98.884-10.342 6.895-38.878 41.677-48.265 53.009-45.022 54.477-82.5 145.237-86.118 215.723-8.158 158.754 57.993 282.18 178.586 372.531 47.445 35.533 112.845 66.116 169.984 81.203 70.178 18.569 153.498 24.235 226.509 12.288 14.814-2.423 28.877-5.086 42.257-8.363 25.873-6.315 52.463-13.858 75.264-24.064 12.527-5.598 23.040-9.523 35.089-15.565l33.109-17.51c36.181-19.285 83.217-60.314 112.162-90.351 4.54-4.71 7.168-8.636 11.605-13.722 122.709-140.766 130.116-351.061 19.319-501.214-30.208-40.994-59.631-69.359-100.42-100.147-25.463-19.183-38.81-24.849-62.327-38.946-59.085-35.396-163.601-61.201-240.64-61.201-110.933 0-74.103 18.842-122.709-13.619-97.314-65.024-232.516-115.234-350.754-89.839-7.953 1.741-18.705 6.554-23.654 11.401-6.929 6.758-10.308 15.053-11.162 23.927z" />
<glyph unicode="&#xe92e;" glyph-name="edit" d="M161.553 61.133c-3.755 0-34.099 30.379-34.099 34.099 0 10.684 18.466 66.97 23.142 83.422 7.236 25.327 21.743 63.044 23.723 87.074 11.981-5.769 108.749-25.566 127.863-25.566l25.566-132.13c-28.945-6.758-53.043-15.292-82.807-23.723-18.091-5.12-69.7-23.177-83.388-23.177zM621.807 811.247l252.518-254.669c18.125 11.776 53.453 51.302 72.465 70.315 60.177 60.211 85.538 93.047 25.156 167.936l-110.319 111.309c-33.485 32.358-87.757 51.985-127.932 19.115l-111.889-114.005zM16.657-11.298c0-62.771 73.83-30.788 96.461-24.030l184.286 54.374c109.022 33.758 66.219 11.913 184.832 130.526 54.033 54.033 303.309 293.649 318.601 316.45l-267.469 265.284c-20.343-13.961-352.597-350.481-394.206-392.055-13.653-13.687-27.341-21.641-34.884-41.847l-53.521-185.139c-5.564-20.036-11.503-38.263-17.579-59.153-4.403-15.155-16.521-47.855-16.521-64.41z" />
<glyph unicode="&#xe92f;" glyph-name="fentrada" d="M17.067 741.444v-662.494c0-15.735 6.485-35.089 12.22-45.875 6.11-11.332 11.059-16.862 18.807-25.771 21.743-24.849 55.706-36.796 98.782-36.796h656.657c55.671 0 85.777 18.364 109.602 51.166 13.278 18.227 18.33 39.049 20.036 62.942h0.137v2.423c1.331 21.367 0.171 45.158 0 71.612v5.53h-78.097v-79.565c-0.034-4.164-0.683-9.25-5.188-17.237-7.543-13.312-20.002-19.422-40.653-19.422h-668.331c-12.8 0-23.62 2.492-31.061 7.68-6.178 4.301-15.428 15.394-15.428 25.259v538.522h761.276v-116.224h77.483c0 76.902 0.034 153.702 0.068 230.605-0.034 63.932-52.326 116.156-116.292 116.156h-75.537c0-67.823 10.581-115.678-42.974-144.93-27.273-14.916-61.781-6.827-84.105 12.015-9.284 7.919-23.996 31.642-23.996 47.718v85.197h-230.502c0-65.775 13.619-140.39-70.588-152.337-39.561-5.632-80.555 31.949-80.555 70.963v81.374c-63.215 0-112.401 9.114-156.399-31.471-16.179-14.882-35.362-46.626-35.362-77.039zM627.268 888.695v-118.17c0-43.759 77.483-55.91 77.483 9.694v102.673c0 29.116-19.149 42.428-38.366 42.598h-0.819c-19.217-0.137-38.298-13.346-38.298-36.796zM245.692 888.695v-114.313c0-52.224 77.449-55.296 77.449 1.946v110.421c0 51.098-77.449 51.234-77.449 1.946zM778.377 503.194v-73.591h195.652c14.165 0 32.905-18.773 32.905-32.939v-122.027c0-22.050-20.036-36.83-42.598-36.83h-185.958v-73.626c0-20.651-10.445-36.762-30.993-36.762-8.363 0-25.225 16.384-31.505 22.733-5.939 6.042-8.021 7.373-14.438 12.698-5.257 4.403-8.465 8.909-13.619 13.414-5.871 5.154-8.704 6.69-14.541 12.663-20.89 21.333-63.59 55.74-86.153 78.438-5.905 5.973-9.796 7.817-15.565 13.483-5.905 5.939-7.782 7.646-14.302 12.868-8.943 7.1-33.212 33.178-44.271 39.014 3.55 5.325 8.090 9.728 13.278 13.858l73.455 66.014c5.803 5.939 7.885 7.714 14.302 12.8 5.769 4.608 9.114 9.387 14.746 14.37l73.626 65.809c11.401 11.332 35.362 36.386 48.845 36.386 20.036 0 27.136-18.227 27.136-38.775z" />
<glyph unicode="&#xe930;" glyph-name="folder" d="M749.636 153.498c19.183 0 38.741 12.595 49.732 21.845 14.677 12.322 18.364 25.429 25.668 43.895l95.949 257.843c6.246 18.5 16.179 37.649 16.179 53.419-4.335 1.024-4.437 1.946-9.66 1.946h-612.864c-23.996 0-42.018-14.097-55.876-27.238-13.073-12.39-14.711-23.313-20.89-39.083-13.551-34.611-25.054-67.823-38.4-102.707-9.796-25.566-74.308-190.942-74.308-207.974 4.335-1.024 4.437-1.946 9.694-1.946h614.775zM1014.511 536.508v-17.34c-2.321-23.962-13.414-47.036-21.982-71.066-7.817-21.845-15.258-41.643-23.586-63.42-16.418-42.769-30.72-84.89-47.241-126.771-29.355-74.445-31.778-120.286-101.342-161.587-14.746-8.772-44.544-20.139-66.833-20.139h-620.612c-54.238 0-108.271 54.17-108.271 106.325v547.123c0 57.583 55.023 108.271 108.271 108.271h201.045c27.341 0 61.679-15.872 77.858-34.304 9.045-10.308 16.452-21.129 22.187-33.86 6.042-13.483 10.172-26.965 10.172-45.909h305.459c32.29 0 60.553-14.882 76.868-31.403 24.439-24.678 35.26-46.251 35.26-82.671 37.581 0 96.427 6.383 125.815-21.129 2.628-2.458 6.485-7.578 10.069-11.196 5.222-5.325 5.052-5.666 8.533-12.698 4.813-9.66 7.373-19.046 8.329-28.228z" />
<glyph unicode="&#xe931;" glyph-name="fsalida" d="M20.753 746.291v-662.494c0-15.735 6.451-35.089 12.22-45.875 6.076-11.298 11.025-16.896 18.773-25.771 21.777-24.883 55.671-36.83 98.782-36.83h656.691c55.671 0 85.743 18.364 109.602 51.166 26.317 36.215 20.173 82.773 20.173 142.541-5.461-1.434-41.062-34.714-47.991-41.131-6.144-5.666-9.353-10.001-15.94-15.019-24.303-18.5-6.895-18.603-19.388-40.687-7.509-13.278-19.968-19.388-40.653-19.388h-668.297c-12.8 0-23.654 2.492-31.095 7.646-6.212 4.335-15.394 15.428-15.394 25.293v538.522h761.276v-48.435c8.738-2.321 12.527-10.342 18.876-15.974l29.082-25.156c3.721-3.447 5.905-6.178 9.626-9.762l19.9-16.896c0 76.868 0.102 153.737 0.068 230.571-0.068 63.966-52.361 116.156-116.292 116.156h-75.571c0-67.823 10.581-115.644-42.94-144.93-27.273-14.882-61.815-6.827-84.105 12.083-9.318 7.885-24.030 31.607-24.030 47.616v85.231h-230.502c0-65.741 13.653-140.356-70.588-152.303-39.526-5.632-80.521 31.949-80.521 70.963v81.34c-63.249 0-112.435 9.148-156.433-31.437-16.213-14.916-35.328-46.66-35.328-77.039zM745.199 508.041v-73.626h-195.618c-14.199 0-32.939-18.705-32.939-32.905v-122.061c0-22.050 20.070-36.796 42.598-36.796h185.958v-73.626c0-20.685 10.445-36.796 30.993-36.796 8.363 0 25.259 16.384 31.505 22.733 5.973 6.042 8.055 7.373 14.438 12.698 5.291 4.437 8.499 8.943 13.653 13.483 5.837 5.12 8.704 6.656 14.507 12.595 20.924 21.333 63.625 55.74 86.187 78.473 5.871 5.939 9.796 7.782 15.565 13.517 5.905 5.871 7.748 7.612 14.268 12.8 8.943 7.134 33.246 33.212 44.271 39.049-3.55 5.325-8.090 9.728-13.278 13.858l-73.421 66.014c-5.803 5.939-7.919 7.714-14.302 12.8-5.769 4.608-9.148 9.387-14.746 14.336l-73.626 65.843c-11.435 11.332-35.396 36.352-48.879 36.352-20.036 0-27.136-18.193-27.136-38.741zM249.31 893.508v-114.278c0-52.224 77.483-55.33 77.483 1.946v110.421c0 51.063-77.483 51.2-77.483 1.911zM630.921 893.508v-118.135c0-43.759 77.483-55.945 77.483 9.66v102.673c0 29.15-19.115 42.428-38.366 42.633h-0.785c-19.217-0.171-38.332-13.38-38.332-36.83z" />
<glyph unicode="&#xe932;" glyph-name="gorvet" d="M145.647 422.298l-2.526 13.995c-5.905-6.246-12.971-10.889-21.265-13.926s-17.92-4.574-28.945-4.574c-23.211 0-41.472 7.612-54.852 22.835-13.346 15.223-20.036 36.113-20.036 62.601 0 27.102 7.441 48.128 22.357 63.078 14.882 14.916 35.772 22.391 62.669 22.391 21.094 0 38.161-5.257 51.098-15.804 12.971-10.479 20.651-25.259 23.074-44.407h-49.391c-1.98 6.485-5.188 11.401-9.626 14.78-4.471 3.379-9.933 5.052-16.486 5.052-10.411 0-18.227-3.959-23.381-11.981-5.188-7.987-7.782-19.9-7.782-35.772 0-14.643 2.594-25.634 7.817-32.87 5.222-7.27 13.175-10.889 23.791-10.889 7.646 0 14.131 1.741 19.422 5.291 5.359 3.55 8.602 8.329 9.899 14.302h-23.484v34.748h71.236v-88.849h-33.587zM76.049 337.886l7.578-1.024c-1.195-4.403-3.413-7.817-6.622-10.24s-7.339-3.652-12.356-3.652c-6.281 0-11.298 1.946-14.985 5.837-3.686 3.857-5.53 9.318-5.53 16.35 0 7.236 1.843 12.868 5.598 16.862 3.721 4.028 8.567 6.007 14.541 6.007 5.734 0 10.445-1.946 14.097-5.871s5.495-9.455 5.495-16.589c0-0.41 0-1.092-0.034-1.946h-32.222c0.307-4.745 1.638-8.363 4.028-10.889 2.423-2.492 5.427-3.755 9.011-3.755 2.697 0 4.983 0.683 6.861 2.116 1.911 1.399 3.413 3.686 4.54 6.793zM52.053 349.628h24.064c-0.307 3.652-1.263 6.349-2.765 8.192-2.321 2.799-5.359 4.233-9.045 4.233-3.379 0-6.178-1.126-8.465-3.379s-3.55-5.257-3.789-9.045zM180.463 336.794l7.27 1.161c0.375-2.901 1.536-5.12 3.379-6.69 1.877-1.536 4.471-2.287 7.817-2.287 3.379 0 5.871 0.683 7.509 2.048s2.458 2.97 2.458 4.813c0 1.638-0.751 2.97-2.219 3.891-1.024 0.649-3.516 1.468-7.475 2.492-5.359 1.331-9.079 2.526-11.162 3.516s-3.652 2.355-4.71 4.096c-1.058 1.741-1.604 3.652-1.604 5.769 0 1.946 0.444 3.721 1.331 5.359s2.082 3.004 3.584 4.096c1.126 0.819 2.697 1.536 4.642 2.116 1.98 0.58 4.062 0.853 6.315 0.853 3.413 0 6.383-0.478 8.909-1.468 2.594-0.956 4.471-2.287 5.7-3.959 1.195-1.673 2.048-3.925 2.526-6.724l-7.168-0.99c-0.341 2.253-1.263 3.994-2.833 5.257s-3.755 1.911-6.588 1.911c-3.345 0-5.769-0.58-7.202-1.673-1.434-1.126-2.15-2.423-2.15-3.925 0-0.922 0.307-1.775 0.887-2.56 0.614-0.785 1.536-1.434 2.833-1.946 0.717-0.273 2.867-0.887 6.451-1.877 5.154-1.365 8.772-2.492 10.82-3.379s3.652-2.15 4.847-3.823c1.161-1.673 1.741-3.789 1.741-6.281 0-2.423-0.683-4.71-2.116-6.861s-3.482-3.823-6.178-5.018c-2.697-1.161-5.734-1.741-9.114-1.741-5.632 0-9.899 1.161-12.868 3.482-2.935 2.321-4.813 5.769-5.632 10.342zM331.469 330.411l0.99-6.451c-2.048-0.444-3.891-0.683-5.495-0.683-2.662 0-4.71 0.444-6.178 1.297-1.468 0.819-2.492 1.946-3.106 3.311-0.58 1.365-0.887 4.267-0.887 8.67v24.917h-5.393v5.632h5.393v10.718l7.339 4.403v-15.121h7.339v-5.632h-7.339v-25.361c0-2.082 0.137-3.413 0.41-4.028 0.239-0.58 0.649-1.058 1.229-1.434 0.58-0.341 1.434-0.512 2.492-0.512 0.819 0 1.877 0.102 3.209 0.273zM457.455 323.891v6.417c-3.345-4.915-7.919-7.339-13.687-7.339-2.526 0-4.915 0.478-7.1 1.434-2.219 0.99-3.857 2.219-4.915 3.686-1.092 1.502-1.843 3.311-2.253 5.427-0.307 1.468-0.444 3.721-0.444 6.861v26.726h7.339v-23.927c0-3.789 0.137-6.383 0.444-7.714 0.444-1.911 1.434-3.413 2.901-4.506 1.502-1.092 3.345-1.673 5.53-1.673s4.233 0.58 6.178 1.673c1.911 1.126 3.277 2.697 4.062 4.608 0.785 1.946 1.195 4.745 1.195 8.431v23.108h7.339v-43.213h-6.588zM593.988 323.891v5.461c-2.765-4.267-6.793-6.383-12.083-6.383-3.447 0-6.622 0.922-9.489 2.833-2.901 1.911-5.12 4.54-6.724 7.953-1.57 3.379-2.389 7.305-2.389 11.708 0 4.301 0.751 8.192 2.15 11.708 1.468 3.516 3.618 6.212 6.485 8.055 2.867 1.877 6.076 2.799 9.626 2.799 2.594 0 4.915-0.546 6.963-1.638 2.014-1.092 3.686-2.56 4.949-4.301v21.436h7.339v-59.631h-6.827zM570.812 345.463c0-5.53 1.161-9.66 3.516-12.39 2.321-2.765 5.086-4.096 8.26-4.096 3.209 0 5.939 1.297 8.192 3.891 2.253 2.628 3.345 6.588 3.345 11.981 0 5.871-1.126 10.206-3.413 12.971s-5.086 4.13-8.431 4.13c-3.277 0-6.007-1.297-8.192-3.959s-3.277-6.827-3.277-12.527zM702.908 375.194v8.329h7.339v-8.329h-7.339zM702.908 323.891v43.213h7.339v-43.213h-7.339zM809.165 345.498c0 7.987 2.253 13.892 6.69 17.749 3.721 3.209 8.26 4.779 13.585 4.779 5.939 0 10.82-1.946 14.575-5.837 6.554-6.724 7.373-21.129 3.174-29.184-1.673-3.174-4.096-5.632-7.305-7.407-3.174-1.775-6.656-2.628-10.445-2.628-6.042 0-10.923 1.911-14.643 5.803-3.755 3.857-5.632 9.455-5.632 16.725zM816.674 345.498c0-5.53 1.229-9.694 3.618-12.425 2.458-2.731 5.495-4.096 9.148-4.096s6.69 1.365 9.114 4.13c2.423 2.765 3.618 6.963 3.618 12.629 0 5.325-1.229 9.353-3.652 12.083-2.423 2.765-5.461 4.13-9.079 4.13-3.652 0-6.69-1.365-9.148-4.096-2.389-2.731-3.618-6.861-3.618-12.356zM945.869 336.794l7.236 1.161c0.41-2.901 1.536-5.12 3.413-6.69 1.843-1.536 4.471-2.287 7.782-2.287 3.379 0 5.905 0.683 7.543 2.048 1.604 1.365 2.423 2.97 2.423 4.813 0 1.638-0.717 2.97-2.185 3.891-1.024 0.649-3.516 1.468-7.509 2.492-5.359 1.331-9.045 2.526-11.127 3.516s-3.652 2.355-4.71 4.096c-1.092 1.741-1.604 3.652-1.604 5.769 0 1.946 0.444 3.721 1.297 5.359 0.887 1.638 2.082 3.004 3.584 4.096 1.161 0.819 2.697 1.536 4.676 2.116s4.062 0.853 6.315 0.853c3.379 0 6.349-0.478 8.909-1.468 2.56-0.956 4.471-2.287 5.666-3.959 1.229-1.673 2.082-3.925 2.526-6.724l-7.168-0.99c-0.307 2.253-1.263 3.994-2.799 5.257-1.57 1.263-3.755 1.911-6.622 1.911-3.345 0-5.734-0.58-7.168-1.673-1.434-1.126-2.15-2.423-2.15-3.925 0-0.922 0.307-1.775 0.887-2.56 0.614-0.785 1.536-1.434 2.799-1.946 0.751-0.273 2.867-0.887 6.451-1.877 5.188-1.365 8.772-2.492 10.854-3.379 2.048-0.887 3.652-2.15 4.813-3.823 1.195-1.673 1.775-3.789 1.775-6.281 0-2.423-0.717-4.71-2.15-6.861s-3.482-3.823-6.144-5.018c-2.697-1.161-5.734-1.741-9.148-1.741-5.598 0-9.899 1.161-12.834 3.482s-4.813 5.769-5.632 10.342zM249.481 503.194c0-15.36 2.526-26.59 7.68-33.826 5.154-7.168 13.21-10.752 24.132-10.752 10.889 0 18.876 3.55 23.927 10.718 5.086 7.134 7.612 18.432 7.612 33.86 0 15.497-2.526 26.795-7.612 33.929-5.052 7.202-13.039 10.752-23.927 10.752-10.923 0-18.978-3.618-24.132-10.786-5.154-7.202-7.68-18.466-7.68-33.894zM196.949 503.228c0 26.419 7.543 47.275 22.596 62.532 15.087 15.292 35.669 22.938 61.713 22.938 25.975 0 46.49-7.646 61.508-22.938 15.087-15.258 22.596-36.113 22.596-62.532 0-26.317-7.509-47.172-22.596-62.464-15.019-15.326-35.533-22.972-61.508-22.972-26.044 0-46.626 7.646-61.713 22.972-15.053 15.292-22.596 36.147-22.596 62.464zM435.78 514.731h23.62c8.294 0 14.029 1.126 17.169 3.379 3.174 2.219 4.745 6.144 4.745 11.742 0 5.734-1.57 9.728-4.745 11.947-3.14 2.253-9.318 3.379-18.466 3.379h-22.323v-30.447zM382.601 423.219v160.802l79.326 0.375c24.303 0.137 41.677-3.618 52.053-10.889 10.411-7.236 15.599-19.149 15.599-35.772 0-9.865-2.15-18.125-6.417-24.644-4.233-6.554-10.82-11.708-19.729-15.531 9.079-1.877 15.667-5.666 19.729-11.264 4.164-5.598 6.315-13.824 6.622-24.678l0.922-22.596c0-0.171 0.034-0.341 0.068-0.546 0.205-6.451 1.809-9.83 4.642-10.138v-4.745h-52.565c-0.99 3.925-1.673 6.007-2.185 8.875-0.478 2.901-0.717 5.154-0.717 6.758v16.213c0 8.363-1.638 14.234-4.949 17.647-3.277 3.447-8.977 5.12-17.135 5.12h-22.084v-54.613l-53.18-0.375zM539.443 585.387h53.248l27.341-104.653 29.252 104.653h51.166l-54.579-162.099h-51.849l-54.579 162.099zM717.995 423.287v162.099h129.604v-38.775h-77.551v-21.641h65.536v-37.205h-65.536v-25.020h80.725v-39.458h-132.779zM909.141 423.287v119.501h-46.66v42.598h145.408v-42.598h-46.66v-119.501h-52.087z" />
<glyph unicode="&#xe933;" d="M145.647 422.298l-2.526 13.995c-5.905-6.246-12.971-10.889-21.265-13.926s-17.92-4.574-28.945-4.574c-23.211 0-41.472 7.612-54.852 22.835-13.346 15.223-20.036 36.113-20.036 62.601 0 27.102 7.441 48.128 22.357 63.078 14.882 14.916 35.772 22.391 62.669 22.391 21.094 0 38.161-5.257 51.098-15.77 12.971-10.513 20.651-25.293 23.074-44.442h-49.391c-1.98 6.485-5.188 11.401-9.626 14.78-4.471 3.379-9.967 5.086-16.486 5.086-10.411 0-18.227-3.994-23.381-12.015-5.188-7.987-7.782-19.9-7.782-35.772 0-14.643 2.594-25.634 7.817-32.87 5.222-7.27 13.175-10.889 23.791-10.889 7.646 0 14.131 1.741 19.422 5.291 5.359 3.55 8.602 8.329 9.899 14.302h-23.484v34.748h71.236v-88.849h-33.587zM249.481 503.194c0-15.36 2.526-26.59 7.68-33.826 5.154-7.168 13.21-10.752 24.132-10.752 10.889 0 18.876 3.55 23.927 10.718 5.086 7.134 7.612 18.432 7.612 33.86 0 15.497-2.526 26.795-7.612 33.929-5.052 7.202-13.039 10.752-23.927 10.752-10.923 0-18.978-3.584-24.132-10.786s-7.68-18.466-7.68-33.894zM196.915 503.228c0 26.419 7.578 47.275 22.63 62.532 15.087 15.292 35.669 22.938 61.713 22.938 25.975 0 46.49-7.646 61.508-22.938 15.087-15.258 22.596-36.113 22.596-62.532 0-26.317-7.509-47.172-22.596-62.464-15.019-15.326-35.533-22.972-61.508-22.972-26.044 0-46.626 7.646-61.713 22.972-15.053 15.292-22.63 36.147-22.63 62.464zM435.78 514.731h23.62c8.294 0 14.029 1.126 17.169 3.379 3.174 2.219 4.745 6.144 4.745 11.742 0 5.734-1.57 9.728-4.745 11.947-3.14 2.253-9.318 3.379-18.466 3.379h-22.323v-30.447zM382.601 423.219v160.802l79.326 0.375c24.303 0.137 41.677-3.618 52.053-10.889 10.411-7.236 15.599-19.149 15.599-35.772 0-9.865-2.15-18.125-6.417-24.644-4.233-6.554-10.82-11.708-19.729-15.531 9.079-1.877 15.633-5.666 19.729-11.264 4.164-5.598 6.315-13.824 6.622-24.678l0.922-22.596c0-0.171 0.034-0.341 0.068-0.546 0.205-6.451 1.809-9.83 4.642-10.138v-4.745h-52.565c-0.956 3.925-1.673 6.007-2.185 8.875-0.478 2.901-0.717 5.154-0.717 6.758v16.213c0 8.329-1.638 14.234-4.949 17.647-3.277 3.447-8.977 5.12-17.135 5.12h-22.084v-54.613l-53.18-0.375zM539.443 585.387h53.248l27.341-104.653 29.252 104.653h51.132l-54.545-162.099h-51.849l-54.579 162.099zM717.995 423.287v162.099h129.604v-38.775h-77.551v-21.641h65.536v-37.205h-65.536v-25.020h80.725v-39.458h-132.779zM909.141 423.287v119.501h-46.66v42.598h145.408v-42.598h-46.66v-119.501h-52.087z" />
<glyph unicode="&#xe934;" d="M76.049 337.886l7.578-1.024c-1.195-4.403-3.413-7.817-6.622-10.24s-7.339-3.652-12.356-3.652c-6.281 0-11.298 1.946-14.985 5.837-3.686 3.857-5.53 9.318-5.53 16.35 0 7.236 1.843 12.868 5.598 16.862 3.721 4.028 8.567 6.007 14.541 6.007 5.734 0 10.445-1.946 14.097-5.871s5.495-9.455 5.495-16.589c0-0.41 0-1.092-0.034-1.946h-32.222c0.307-4.745 1.638-8.363 4.028-10.889 2.423-2.492 5.427-3.755 9.011-3.755 2.697 0 4.983 0.683 6.861 2.116 1.911 1.399 3.413 3.686 4.54 6.793zM52.053 349.628h24.064c-0.307 3.652-1.263 6.349-2.765 8.192-2.321 2.799-5.359 4.233-9.045 4.233-3.379 0-6.178-1.126-8.465-3.379s-3.55-5.257-3.789-9.045zM180.463 336.794l7.27 1.161c0.375-2.901 1.536-5.12 3.379-6.69 1.877-1.536 4.471-2.287 7.817-2.287 3.379 0 5.871 0.683 7.509 2.048s2.458 2.97 2.458 4.813c0 1.638-0.751 2.97-2.219 3.891-1.024 0.649-3.516 1.468-7.475 2.492-5.359 1.331-9.079 2.526-11.162 3.516s-3.652 2.355-4.71 4.096c-1.058 1.741-1.604 3.652-1.604 5.769 0 1.946 0.444 3.721 1.331 5.359s2.082 3.004 3.584 4.096c1.126 0.819 2.697 1.536 4.642 2.116 1.98 0.58 4.062 0.853 6.315 0.853 3.413 0 6.383-0.478 8.909-1.468 2.594-0.956 4.471-2.287 5.7-3.959 1.195-1.673 2.048-3.925 2.526-6.724l-7.168-0.99c-0.341 2.253-1.263 3.994-2.833 5.257s-3.755 1.911-6.588 1.911c-3.345 0-5.769-0.58-7.202-1.673-1.434-1.126-2.15-2.423-2.15-3.925 0-0.922 0.307-1.775 0.887-2.56 0.614-0.785 1.536-1.434 2.833-1.946 0.717-0.273 2.867-0.887 6.451-1.877 5.154-1.365 8.772-2.492 10.82-3.379s3.652-2.15 4.847-3.823c1.161-1.673 1.741-3.789 1.741-6.281 0-2.423-0.683-4.71-2.116-6.861s-3.482-3.823-6.178-5.018c-2.697-1.161-5.734-1.741-9.114-1.741-5.632 0-9.899 1.161-12.868 3.482-2.935 2.321-4.813 5.769-5.632 10.342zM331.469 330.411l0.99-6.451c-2.048-0.444-3.891-0.683-5.495-0.683-2.662 0-4.71 0.444-6.178 1.297-1.468 0.819-2.492 1.946-3.106 3.311-0.58 1.365-0.887 4.267-0.887 8.67v24.917h-5.393v5.632h5.393v10.718l7.339 4.403v-15.121h7.339v-5.632h-7.339v-25.361c0-2.082 0.137-3.413 0.41-4.028 0.239-0.58 0.649-1.058 1.229-1.434 0.58-0.341 1.434-0.512 2.492-0.512 0.819 0 1.877 0.102 3.209 0.273zM457.455 323.891v6.417c-3.345-4.915-7.919-7.339-13.687-7.339-2.526 0-4.915 0.478-7.1 1.434-2.219 0.99-3.857 2.219-4.915 3.686-1.092 1.502-1.843 3.311-2.253 5.427-0.307 1.468-0.444 3.721-0.444 6.861v26.726h7.339v-23.927c0-3.789 0.137-6.383 0.444-7.714 0.444-1.911 1.434-3.413 2.901-4.506 1.502-1.092 3.345-1.673 5.53-1.673s4.233 0.58 6.178 1.673c1.911 1.126 3.277 2.697 4.062 4.608 0.785 1.946 1.195 4.745 1.195 8.431v23.108h7.339v-43.213h-6.588zM593.988 323.891v5.461c-2.765-4.267-6.793-6.383-12.083-6.383-3.447 0-6.622 0.922-9.489 2.833-2.901 1.911-5.12 4.54-6.724 7.953-1.57 3.379-2.389 7.305-2.389 11.708 0 4.301 0.751 8.192 2.15 11.708 1.468 3.516 3.618 6.212 6.485 8.055 2.867 1.877 6.076 2.799 9.626 2.799 2.594 0 4.915-0.546 6.963-1.638 2.014-1.092 3.686-2.56 4.949-4.301v21.436h7.339v-59.631h-6.827zM570.812 345.463c0-5.53 1.161-9.66 3.516-12.39 2.321-2.765 5.086-4.096 8.26-4.096 3.209 0 5.939 1.297 8.192 3.891 2.253 2.628 3.345 6.588 3.345 11.981 0 5.871-1.126 10.206-3.413 12.971s-5.086 4.13-8.431 4.13c-3.277 0-6.007-1.297-8.192-3.959s-3.277-6.827-3.277-12.527zM702.908 375.194v8.329h7.339v-8.329h-7.339zM702.908 323.891v43.213h7.339v-43.213h-7.339zM809.165 345.498c0 7.987 2.253 13.892 6.69 17.749 3.721 3.209 8.26 4.779 13.585 4.779 5.939 0 10.82-1.946 14.575-5.837 6.554-6.724 7.373-21.129 3.174-29.184-1.673-3.174-4.096-5.632-7.305-7.407-3.174-1.775-6.656-2.628-10.445-2.628-6.042 0-10.923 1.911-14.643 5.803-3.755 3.857-5.632 9.455-5.632 16.725zM816.674 345.498c0-5.53 1.229-9.694 3.618-12.425 2.458-2.731 5.495-4.096 9.148-4.096s6.69 1.365 9.114 4.13c2.423 2.765 3.618 6.963 3.618 12.629 0 5.325-1.229 9.353-3.652 12.083-2.423 2.765-5.461 4.13-9.079 4.13-3.652 0-6.69-1.365-9.148-4.096-2.389-2.731-3.618-6.861-3.618-12.356zM945.869 336.794l7.236 1.161c0.41-2.901 1.536-5.12 3.413-6.69 1.843-1.536 4.471-2.287 7.782-2.287 3.379 0 5.905 0.683 7.543 2.048 1.604 1.365 2.423 2.97 2.423 4.813 0 1.638-0.717 2.97-2.185 3.891-1.024 0.649-3.516 1.468-7.509 2.492-5.359 1.331-9.045 2.526-11.127 3.516s-3.652 2.355-4.71 4.096c-1.092 1.741-1.604 3.652-1.604 5.769 0 1.946 0.444 3.721 1.297 5.359 0.887 1.638 2.082 3.004 3.584 4.096 1.161 0.819 2.697 1.536 4.676 2.116s4.062 0.853 6.315 0.853c3.379 0 6.349-0.478 8.909-1.468 2.56-0.956 4.471-2.287 5.666-3.959 1.229-1.673 2.082-3.925 2.526-6.724l-7.168-0.99c-0.307 2.253-1.263 3.994-2.799 5.257-1.57 1.263-3.755 1.911-6.622 1.911-3.345 0-5.734-0.58-7.168-1.673-1.434-1.126-2.15-2.423-2.15-3.925 0-0.922 0.307-1.775 0.887-2.56 0.614-0.785 1.536-1.434 2.799-1.946 0.751-0.273 2.867-0.887 6.451-1.877 5.188-1.365 8.772-2.492 10.854-3.379 2.048-0.887 3.652-2.15 4.813-3.823 1.195-1.673 1.775-3.789 1.775-6.281 0-2.423-0.717-4.71-2.15-6.861s-3.482-3.823-6.144-5.018c-2.697-1.161-5.734-1.741-9.148-1.741-5.598 0-9.899 1.161-12.834 3.482s-4.813 5.769-5.632 10.342z" />
<glyph unicode="&#xe935;" glyph-name="help1" d="M423.731 266.923c-0.034 1.536-0.068 2.901-0.068 4.096 0 38.434 4.267 70.417 12.527 95.915 8.294 25.463 21.47 49.391 39.799 71.748 13.858 16.555 34.884 35.533 62.601 56.798 27.477 21.436 45.602 36.864 53.862 46.49 17.442 19.661 29.525 37.308 36.011 52.975 6.485 15.872 9.83 33.075 9.83 51.849 0 41.37-11.639 73.557-34.645 96.802-23.245 23.040-55.467 34.645-96.802 34.645-41.574 0-74.24-13.858-97.929-41.574-18.876-22.050-30.925-51.234-36.181-87.45-2.458-16.896-16.725-29.252-33.792-29.252h-119.091c-9.694 0-18.057 3.584-24.713 10.615-6.69 7.066-9.865 15.565-9.353 25.259 4.028 78.95 23.62 145.92 86.562 205.141 58.266 54.818 136.806 82.261 235.622 82.261 100.796 0 181.043-25.941 240.742-77.585 59.699-51.849 89.429-121.173 89.429-208.111 0-30.652-3.379-58.129-10.069-82.261-6.929-24.371-17.203-46.524-31.3-66.628-17.886-25.259-45.602-52.77-82.944-82.057-37.308-29.491-59.904-47.821-67.721-54.75-16.759-16.111-28.604-33.109-35.772-50.961-6.383-15.667-9.899-33.69-10.752-54.443-0.751-18.295-15.804-32.768-34.099-32.768h-107.622c-18.5 0-33.655 14.78-34.133 33.246zM415.642-12.493v123.529c0 18.807 15.326 34.133 34.133 34.133h124.86c18.807 0 34.133-15.326 34.133-34.133v-123.529c0-18.807-15.326-34.133-34.133-34.133h-124.86c-18.807 0-34.133 15.326-34.133 34.133z" />
<glyph unicode="&#xe936;" glyph-name="quotec" d="M30.618 484.011h158.208c0-99.84-29.252-156.297-77.483-216.303-48.572-60.484-94.276-61.44-94.276-81.988v-131.106c0-45.397 164.42 27.682 171.827 31.573 145.852 76.527 198.793 230.161 198.793 411.409 0 66.082 6.246 310.852-4.506 357.069h-284.774c-41.54 0-81.34 8.26-81.34-13.551v-343.518c0-10.411 3.14-13.585 13.551-13.585zM640.819 484.011h167.253c0-87.893-29.423-169.916-80.111-222.72-36.489-37.99-91.648-61.85-91.648-80.111v-126.566c0-29.867 67.174-3.447 97.314 6.622 191.488 64.137 273.306 200.875 273.306 422.775v357.103c0 10.411-3.14 13.551-13.551 13.551h-339.012c-10.581 0-18.057-7.509-18.057-18.091v-329.967c0-12.186 2.15-12.459 4.506-22.596z" />
<glyph unicode="&#xe937;" glyph-name="quoteo" d="M993.382 411.989h-158.208c0 99.84 29.218 156.297 77.483 216.303 48.572 60.484 94.276 61.44 94.276 81.988v131.072c0 45.431-164.42-27.648-171.827-31.539-145.852-76.527-198.793-230.161-198.793-411.409 0-66.082-6.246-310.852 4.506-357.069h284.74c41.574 0 81.374-8.26 81.374 13.585v343.484c0 10.445-3.14 13.585-13.551 13.585zM383.181 411.989h-167.219c0 87.893 29.423 169.916 80.077 222.72 36.489 37.99 91.648 61.815 91.648 80.111v126.532c0 29.867-67.174 3.482-97.314-6.622-191.488-64.102-273.306-200.841-273.306-422.741v-357.069c0-10.445 3.14-13.585 13.551-13.585h339.012c10.581 0 18.057 7.509 18.057 18.091v329.967c0 12.186-2.15 12.459-4.506 22.596z" />
<glyph unicode="&#xe938;" glyph-name="reply" d="M17.067 548.557c0-37.683 12.049-32.256 43.861-64.478 29.73-30.174 137.455-119.808 173.807-154.897 10.069-9.728 14.302-15.155 25.122-23.415l98.031-88.781c10.138-9.421 15.667-11.844 26.146-22.391 29.73-29.867 70.622-32.461 70.212 25.088l-0.58 150.016c0.307 36.318 17.34 18.534 48.845 18.091 236.305-3.311 340.036-27.477 442.197-230.161 8.055-16.009 16.521-34.611 22.596-52.122 3.686-10.581 6.144-19.49 9.284-28.092 4.028-11.162 6.451-14.507 10.138-27.204l12.595-43.418c3.311-10.342 1.195-7.441 7.612-14.814 0 162.167-27.614 361.438-121.651 490.94-11.537 15.906-19.012 28.877-32.358 42.359-12.322 12.425-26.18 29.389-38.605 39.868-102.912 87.006-208.828 125.338-360.209 125.338v183.057c0 30.071-37.717 43.418-66.355 14.063-10.513-10.786-15.872-12.902-26.146-22.426l-72.806-65.399c-10.684-10.854-15.531-13.107-26.112-22.46-17.442-15.428-33.041-31.232-50.483-46.626l-173.909-154.795c-7.339-6.178-21.231-15.599-21.231-27.341z" />
<glyph unicode="&#xe939;" d="M68.267 236.373c10.24-27.307 37.547-68.267 58.027-88.747 68.267-85.333 160.427-146.773 266.24-170.667 146.773-34.133 314.027-3.413 423.253 92.16 10.24 6.827 17.067 13.653 20.48 20.48-6.827 3.413-3.413 0-10.24 6.827-3.413 3.413-6.827 3.413-10.24 6.827-13.653 10.24-27.307 20.48-37.547 30.72l-58.027 44.373c-3.413 3.413-6.827 6.827-10.24 10.24s-6.827 3.413-10.24 6.827l-17.067 13.653c0 0 0 0 0 0s0 0 0 0l-27.307-13.653c-71.68-37.547-180.907-37.547-252.587-6.827-20.48 10.24-37.547 17.067-54.613 30.72-34.133 23.893-61.44 51.2-81.92 88.747-17.067 30.72-20.48 47.787-23.893 54.613-3.413 3.413 0 0-3.413 3.413-3.413-3.413-6.827-6.827-10.24-10.24l-157.013-119.467z" />
<glyph unicode="&#xe93a;" d="M675.84 205.653c0 0 0 0 0 0s0 0 0 0l17.067-13.653c3.413-3.413 6.827-3.413 10.24-6.827s6.827-6.827 10.24-10.24l58.027-44.373c10.24-10.24 27.307-20.48 37.547-30.72 3.413-3.413 6.827-3.413 10.24-6.827 6.827-6.827 3.413-3.413 10.24-6.827 10.24 3.413 47.787 47.787 54.613 58.027 6.827 6.827 10.24 13.653 17.067 23.893 68.267 98.987 95.573 256 68.267 378.88h-460.8v-191.147h262.827c0-13.653-10.24-37.547-13.653-47.787-20.48-54.613-47.787-68.267-85.333-98.987z" />
<glyph unicode="&#xe93b;" d="M68.267 236.373l157.013 119.467c3.413 3.413 6.827 6.827 10.24 10.24 0 6.827-6.827 30.72-6.827 40.96-13.653 75.093 10.24 129.707 10.24 143.36l-126.293 95.573c-6.827 6.827-34.133 27.307-40.96 30.72-10.24-13.653-30.72-81.92-37.547-98.987-20.48-78.507-20.48-160.427 0-238.933 6.827-27.307 13.653-51.2 23.893-75.093 3.413-3.413 6.827-17.067 10.24-23.893z" />
<glyph unicode="&#xe93c;" glyph-name="utilities" horiz-adv-x="1021" d="M85.361 93.708c0 17.444 8.463 37.763 20.582 49.871 19.896 19.896 51.266 25.707 78.082 14.57 68.732-28.549 47.579-134.896-28.211-134.896-17.444 0-37.763 8.463-49.871 20.582-12.14 12.14-20.582 32.416-20.582 49.871zM417.492 711.679c0-61.853 13.239-99.595 46.3-148.959-6.012-4.026-9.076-8.527-14.57-13.609l-61.378-55.376c-5.98-5.78-9.985-7.745-16.155-14.032l-291.885-263.684c-12.912-11.971-34.868-30.905-45.085-43.489-48.212-59.381-47.378-136.724 9.879-194.065 67.231-67.326 159.747-50.643 220.512 22.051l72.377 78.59c5.875 5.78 7.047 7.882 12.161 14.010l158.975 173.166c5.262 5.463 6.551 8.664 12.003 14.169 18.237 18.427 55.588 53.728 34.139 85.394l-35.819 50.738c-9.721 14.592-42.782 58.345-43.077 71.658 14.761-0.328 51.911-27.788 66.037-36.632 21.914-13.704 43.067-26.679 64.917-39.76 68.985-41.281 83.408-58.483 172.996-58.483 52.175 0 99.479 24.133 134.050 51.15 58.673 45.846 81.791 96.171 95.971 169.742 9.541 49.512 11.538 101.655 11.538 157.549 0 32.099-37.995-12.838-45.793-20.635-15.553-15.553-31.55-30.303-46.321-46.279-4.522-4.892-5.22-7.185-9.995-12.14l-34.265-34.181c-24.365-24.365-27.271-29.69-70.95-29.69-14.866 0-24.936 2.325-38.143 4.131-12.109 1.648-24.281 3.878-36.379 5.896-10.587 1.765-25.242 4.955-34.456 7.819-33.917 10.534-35.322 16.462-45.455 85.394-3.561 24.207-8.97 53.939-6.847 76.085 2.874 29.912 9.435 30.176 31.93 52.671 14.919 14.919 28.359 28.359 43.278 43.278s28.359 28.359 43.278 43.278l32.004 32.406c4.195 5.441 4.734 8.157 4.734 17.413-37.414 8.717-149.994-5.642-179.674-11.559-39.686-7.914-79.097-23.161-106.188-42.771-56.295-40.763-104.656-115.549-104.656-191.244z" />
<glyph unicode="&#xe93d;" glyph-name="school" horiz-adv-x="1489" d="M26.754 699.81c0-35.223 31.716-36.819 80.621-53.116l97.7-33.062c-5.87-8.782-12.195-16.14-18.457-26.127-6.434-10.285-10.989-19.615-15.983-31.575-9.768-23.403-16.202-45.335-21.321-70.821-5.917-29.477-5.338-45.148-8.062-60.285-5.025-27.928-10.958-4.555-32.374-38.964-25.094-40.295-4.43-98.67 30.808-108.079 0-31.685-8.641-61.757-16.108-87.9-18.112-63.51-54.791-121.307-100.533-166.94-9.659-9.643-19.568-15.592-23.028-30.464 9.299-12.696 83.172-56.466 121.855-56.466 39.168 0 93.551 73.498 103.68 131.106 7.968 45.32 4.399 115.389-1.769 163.997-1.268 9.941-1.957 20.179-2.912 26.801-1.503 10.222-3.225 17.768-3.898 25.814 52.552 35.191 29.994 115.233-5.949 124.829 4.712 56.654 17.737 129.103 58.736 170.102 32.467 32.467 109.769 62.524 150.158 78.695 44.114 17.658 308.597 125.674 334.991 125.674 35.692 0 58.689-51.441 1.91-70.257-20.382-6.763-38.541-12.070-57.937-19.333-81.45-30.511-198.452-74.5-277.664-108.705-10.786-4.665-47.277-17.267-52.662-24.609l289.405-96.948c119.334-39.794 79.541-40.122 193.177-2.239 32.514 10.833 61.663 20.57 93.614 31.215l512.748 170.822c23.92 8.125 31.513 14.214 31.513 36.835 0 26.080-42.189 32.389-77.646 44.208-59.769 19.913-639.799 215.985-653.466 215.985-11.459 0-75.236-23.247-91.751-28.757-30.808-10.269-61.303-20.413-93.63-31.199-63.823-21.274-123.404-41.124-187.243-62.414l-278.619-92.878c-36.162-12.054-79.869-18.864-79.869-44.96zM303.149 503.66c-7.358-31.591-11.897-42.956-11.897-80.245 0-9.080 1.722-4.9 5.886-8.97 18.77-18.347 40.389-29.884 46.901-75.001 3.178-22.026 3.475-37.774-3.194-57.734-3.209-9.643-6.591-15.185-10.708-21.995-6.215-10.285-9.487-12.179-15.107-20.57 31.293-46.729 140.797-85.035 193.177-98.091 182.704-45.523 448.063-42.158 615.222 41.61 123.451 61.867 104.024 106.764 104.024 216.956 0 35.661 0 71.322 0 106.999-14.402-1.205-211.852-69.146-230.7-75.423-30.777-10.269-203.978-71.494-232-74.155-29.102-2.755-86.867 21.196-116.469 31.074l-345.135 115.53z" />
<glyph unicode="&#xe93e;" glyph-name="restaurant" d="M292.905 689.347c-15.882 0-25.262 8.53-25.262 25.262v217.58c-20.326 0-43.694-1.976-60.221-5.827l-3.779-79.759c-0.768-9.257 0.41-19.712-0.092-29.051-0.502-9.308-2.048-13.384-1.976-25.221 0.287-49.889-9.574-148.931 3.133-187.3 25.856-78.060 106.721-74.353 103.823-123.484-2.109-35.85-19.876-162.14-24.771-200.745-9.902-77.967-14.346-196.721 4.065-270.653 20.992-84.275 84.388-69.335 104.212-41.605 7.875 11.008 15.401 30.269 19.016 45.097 40.796 167.014-33.905 448.87-20.9 483.256 5.54 14.643 19.19 21.432 32.123 30.054 48.404 32.266 67.133 48.691 75.756 108.81 2.611 18.227 0.881 42.209-0.87 57.774-1.505 13.435-0.031 97.106-3.348 119.040l-3.041 90.204c-3.564 32.317 5.796 23.624-34.376 27.791-7.311 0.758-20.337 1.905-27.505 3.574 0-15.985 2.222-221.409-1.229-231.885-7.547-22.866-45.394-18.135-45.394 4.588v229.243c-80.292 0-68.055 6.605-68.004-27.197 0.041-26.173 1.413-197.663-0.748-205.179-2.109-7.322-12.073-14.346-20.623-14.346zM658.135 675.748l-1.894-75.817c0.092-21.688-6.042-74.998-5.847-99.052l-2.488-49.971c-0.799-6.164-2.406-17.029-3.205-23.992-8.591-75.684-25.682-161.372-25.375-236.892 0.041-10.404-2.109-15.974-1.894-23.153 0.215-7.444 1.925-14.356 1.864-25.354-0.184-34.662 0.584-65.372 5.468-99.441 5.407-37.663 13.445-94.843 62.515-94.843 27.259 0 41.646 3.297 54.354 25.303 31.703 54.897 30.833 235.284 12.38 303.698-4.403 16.312-8.264 30.976-13.537 46.684-27.116 80.835 1.362 99.645 46.725 157.706 4.219 5.386 7.127 8.878 11.080 14.172 4.454 5.97 7.782 8.991 11.796 15.401 42.035 67.195 32.604 98.724 32.614 173.302 0.020 88.177-22.221 180.828-90.9 223.816-26.993 16.896-56.617 22.907-93.655 22.907v-254.495z" />
<glyph unicode="&#xe93f;" glyph-name="hotel" horiz-adv-x="950" d="M394.766 16.151h-314.616v659.286c0 34.293 15.804 50.097 50.097 50.097h689.341c34.293 0 50.097-15.804 50.097-50.097v-659.286h-314.616v236.465h-160.314v-236.465zM715.393 805.697h-88.173l44.467 22.75c5.62 0.413 21.38-10.706 32.358-16.043l11.337-6.706zM474.928 827.741l40.63-19.489c3.728-2.402 1.424-0.793 3.456-2.565h-88.173c2.598 2.261 0.663 0.935 4.696 3.326 1.674 0.989 3.935 2.065 5.293 2.728 3.63 1.793 6.543 3.217 10.728 5.304 4.467 2.228 19.793 10.685 23.38 10.685zM320.626 805.697h-86.162l42.467 22.75 43.695-22.75zM196.377 901.881c2.435-10.456 9.391-14.859 17.195-20.891 31.967-24.652 15.022-24.967 11.88-64.423-0.5-6.25 1.217-7.293 5-10.88-59.152 0-140.281 8.283-180.661-23.739-17.054-13.522-10.435-7.239-23.293-22.804-4.283-5.185-6.435-7.837-9.826-14.228-12.163-22.935-16.674-41.434-16.674-75.499v-733.438h949.859v733.438c0 51.717-17.261 97.129-62.086 120.27-43.913 22.663-110.086 16-168.357 16 7.511 7.13 4.935 10.869 2.587 24.608-5.087 29.782-11.272 30.369 13.141 49.836 7.815 6.228 15.761 10.685 18.337 21.75-11.022 7.38-11.554 5.609-26.391 7.674-9.413 1.304-24.174 1.326-28.956 7.119l-17.348 34.761c-3.337 6.424-2.522 6.717-9.467 8.565-10.587-7.087-17.695-34.695-24.815-43.326-4.717-5.717-18.065-5.63-27.184-6.88-15.348-2.109-17.076-0.478-28.163-7.902 4.043-17.359 28.217-25.978 34.5-37.782 3.88-7.293-3.609-33.706-5.185-45.902-0.924-7.087-0.587-7.435 4.75-12.511l-101.89 1.75c9.098 10.174-2.043 27.076-4.315 54.358 5.772 3.87 36.076 31.771 36.076 38.076 0 8.554-17.228 8.696-24.38 9.685l-23.011 3.033c-0.663 0.163-2.489 0.696-3.054 0.946-3.62 1.685-1.402 0.348-3.478 2.533-6.456 6.826-17.195 43.902-26.228 43.902-6.761 0-11.467-14.913-14.032-20.032-8.109-16.239-9.163-24.239-17.141-26.945l-22.837-3.217c-7.837-1.054-26.163-1.239-26.163-9.913 0-6.315 30.293-34.206 36.076-38.076-2.924-35.087-15.456-44.413-2-56.108h-104.205c14.435 13.696-7.228 41.163-1.098 57.054 4.337 11.228 31.087 21.641 35.163 39.141-19.315 12.935-46.923 4.576-55.347 14.793-10.587 12.837-13.576 39.793-26.815 43.326-7.119-4.772-9.054-12.087-13.359-20.706-14.869-29.793-7.619-25.239-38.63-29.5-15.348-2.109-17.076-0.478-28.163-7.902zM158.312 527.157h154.303c4.62 0 6.011 1.391 6.011 6.011v108.216c0 4.62-1.391 6.011-6.011 6.011h-154.303v-120.227zM631.231 641.384v-108.216c0-4.62 1.391-6.011 6.011-6.011h154.303v120.227h-154.303c-4.62 0-6.011-1.391-6.011-6.011zM631.231 246.605v-108.205c0-4.62 1.391-6.011 6.011-6.011h154.303v120.238h-154.303c-4.62 0-6.011-1.402-6.011-6.011zM158.312 132.389h154.303c4.62 0 6.011 1.391 6.011 6.011v108.205c0 4.62-1.391 6.011-6.011 6.011h-154.303v-120.238zM394.766 641.384v-114.227h160.314v114.227c0 4.62-1.402 6.011-6.011 6.011h-148.292c-4.62 0-6.011-1.391-6.011-6.011zM631.231 330.768h160.314v118.238h-160.314zM394.766 330.768h160.314v118.238h-160.314zM158.312 330.768h160.303v118.238h-160.303z" />
<glyph unicode="&#xe940;" glyph-name="hospital" d="M80.004 121.994v652.002c0 54.751 51.249 106 106 106h652.002c54.751 0 106-51.249 106-106v-652.002c0-54.751-51.249-106-106-106h-652.002c-54.751 0-106 51.249-106 106zM0 777.996v-660.002c0-92.769 89.225-182.004 182.004-182.004h660.002c92.769 0 182.004 89.225 182.004 182.004v660.002c0 92.769-89.225 182.004-182.004 182.004h-660.002c-92.769 0-182.004-89.225-182.004-182.004zM432.001 527.999h-196v-159.998h196v-196h159.998v196h196v159.998h-196v196h-159.998z" />
<glyph unicode="&#xe941;" glyph-name="bar" horiz-adv-x="985" d="M275.659 529.666c-0.137 0.801 1.35 1.064 2.436 2.231 5.742 6.234 9.7 14.241 11.416 22.591 2.322 11.381 2.494 21.997 2.494 35.506 7.835-5.25 13.475-14.619 19.72-22.283 6.566-8.064 13.326-14.333 18.279-23.712-22.763-12.045-47.356-13.052-52-16.003l-2.333 1.67zM225.992 577.995c0-10.398 1.544-20.807 3.649-28.345 2.883-10.306 7.229-14.012 12.342-21.653-53.865 1.201-113.037 41.133-138.648 87.346-4.37 7.881-7.389 15.168-11.347 22.649 7.103-1.659 7.675-3.409 17.124-5.033 21.814-3.752 64.708 15.877 83.514 26.4l29.363 16.643c8.739-5.857 7.264-10.146 16.003-16.003-5.376-23.095-11.999-54.379-11.999-82.004zM321.997 683.997h537.994c-14.15-21.139-46.098-54.254-61.998-78h-326.002l161.994-198.003c-6.978-10.409-13.303-16.906-21.162-26.847-5.147-6.509-17.753-23.426-22.843-27.155-10.592 15.82-35.929 43.947-49.129 60.877l-202.43 247.578c-6.108 6.978-12.171 13.475-16.449 21.55zM197.991 714c-10.169 0-23.037-2.848-33.664-4.335-34.693-4.839-61.334-11.507-82.335-35.666l-2.002 35.997c0 44.851 27.213 103.383 58.005 123.995 4.484-19.263 15.236-36.146 26.583-49.404l18.554-19.446c7.103-5.422 14.253-12.262 18.862-19.137-2.276-9.78-9.334-20.887-4.004-32.005zM375.987 830c10.318-2.757 21.31-19.949 27.224-28.768 9.906-14.79 11.896-22.889 18.771-37.221h-89.999c3.557 5.308 7.71 8.705 12.525 13.475 5.41 5.365 7.916 9.139 12.617 15.385 6.966 9.242 17.73 23.655 18.851 37.141zM179.986 864.007c29.226 6.806 23.609 16.003 82.004 16.003 42.701 0 59.344-14.584 73.997-18.004-2.722-4.061-8.522-7.081-19.549-20.452-12.091-14.641-38.308-59.767-42.449-77.554h-28.002c-17.821 33.664-25.897 69.433-62.707 97.297-3.912 2.963-1.19 0.869-3.294 2.711zM-0.013 716.013c0-66.093 10.901-107.306 46.372-159.626l60.808-61.197c37.279-25.737 87.163-47.184 136.818-47.184 51.279 0 67.008 2.173 113.437 20.567 9.128 3.615 18.565 9.574 26.561 11.439l33.126-40.87c36.089-46.224 81.683-97.492 118.001-144.001 5.799-7.435 13.795-12.422 14.893-23.106l-0.023-226.028c-69.81-16.266-159.295-38.777-216.019-81.969-7.801-5.937-15.682-14.641-15.968-28.025h546.001c-3.901 46.796-128.479 82.027-165.563 92.436-13.692 3.843-57.159 16.632-68.437 17.57l-0.011 208.012c-0.080 15.179-1.945 19.343 5.628 28.368l110.898 135.102c36.169 40.539 88.215 110.852 125.036 152.958l94.735 115.267c10.581 12.971 22.603 26.057 17.375 47.814-3.843 15.98-19.674 30.473-39.669 30.473h-439.999c0 39.395-47.928 106.494-81.386 134.622-29.134 24.49-36.226 26.515-66.619 41.385-35.082 17.169-71.24 19.995-112.007 19.995-39.646 0-69.112-12.663-97.72-24.273-13.303-5.399-26.034-14.058-37.896-22.099-23.93-16.231-30.873-26.309-47.871-44.13-33.218-34.819-60.499-103.52-60.499-153.495z" />
</font>
</defs>
</svg>
